<svg width="700" height="509" viewBox="0 0 700 509" fill="none" xmlns="http://www.w3.org/2000/svg">
<g clip-path="url(#clip0_4_43)">
<path d="M407.749 89.7308C420.868 89.7308 431.503 79.0979 431.503 65.9815C431.503 52.8652 420.868 42.2323 407.749 42.2323C394.63 42.2323 383.994 52.8652 383.994 65.9815C383.994 79.0979 394.63 89.7308 407.749 89.7308Z" fill="#F2F2F2"/>
<path d="M592.02 442.196C627.329 415.309 644.193 370.128 633.635 327.027C633.373 325.956 633.096 324.888 632.804 323.822C625.805 298.238 608.489 273.923 583.251 265.748C562.059 258.884 538.928 264.162 516.82 261.433C473.422 256.074 439.776 220.967 416.101 184.21C392.427 147.453 374.232 106.309 342.774 75.9416C290.921 25.887 206.335 15.1102 142.044 47.692C77.7531 80.274 36.8005 152.56 38.547 224.601C40.2936 296.643 83.0711 365.52 145.195 402.063C168.016 415.488 194.412 424.998 220.68 421.671C243.474 418.783 264.184 406.538 286.87 402.903C322.537 397.188 357.977 413.311 388.827 432.099C419.676 450.887 449.475 473.156 484.531 481.866C518.571 490.324 560.742 466.014 592.02 442.196Z" fill="#F2F2F2"/>
<path d="M541.291 49.2049C540.516 48.689 539.734 48.1998 538.96 47.7017C516.586 33.3954 492.604 21.7731 467.511 13.075L461.693 93.322H424.808V1.36083C422.486 0.880518 420.146 0.426895 417.806 -4.57764e-05V93.322H373.973C349.842 93.322 326.699 83.7383 309.636 66.679C292.573 49.6198 282.987 26.4825 282.987 2.35712V2.35704C280.639 2.86404 278.308 3.40661 275.977 3.98476V93.3221H240.275L234.732 16.8019C208.945 26.6893 184.464 39.6919 161.834 55.52C161.442 55.7869 161.051 56.0626 160.668 56.3294C158.702 57.7081 156.763 59.1134 154.832 60.5366V366.68H260.052L258.193 340.93L247.962 199.55H453.997L443.766 340.93L441.907 366.68H545.961V52.3002C544.413 51.2506 542.856 50.2189 541.291 49.2049ZM275.977 176.202H246.271L240.782 100.331H275.977V176.202ZM417.806 176.202H367.914V174.699C367.914 173.976 367.772 173.261 367.495 172.593C367.218 171.926 366.812 171.319 366.301 170.809C365.789 170.298 365.182 169.893 364.514 169.618C363.846 169.342 363.13 169.201 362.407 169.202H340.717C339.995 169.202 339.28 169.344 338.613 169.62C337.946 169.896 337.34 170.301 336.829 170.811C336.318 171.322 335.913 171.928 335.637 172.595C335.361 173.262 335.219 173.977 335.219 174.699V176.202H282.988V100.331H417.806V176.202ZM424.808 176.202V100.331H461.186L455.697 176.202H424.808Z" fill="#3F3D56"/>
<path d="M-3.05176e-05 386.284C7.72865 395.44 16.0881 404.044 25.0171 412.034L674.983 412.923C683.912 404.933 692.271 396.329 700 387.173L-3.05176e-05 386.284Z" fill="#3F3D56"/>
<path d="M440.763 303.832V380.062C440.764 381.033 441.15 381.965 441.837 382.652C442.524 383.339 443.456 383.725 444.427 383.726H557.418C558.389 383.725 559.321 383.339 560.008 382.652C560.695 381.965 561.082 381.033 561.082 380.062V303.832C561.08 302.861 560.693 301.931 560.006 301.245C559.319 300.559 558.389 300.173 557.418 300.172H444.427C443.456 300.173 442.526 300.559 441.839 301.245C441.152 301.931 440.765 302.861 440.763 303.832Z" fill="#3F3D56"/>
<path d="M443.413 304.78V379.121C443.414 379.64 443.621 380.138 443.988 380.505C444.355 380.872 444.853 381.079 445.372 381.079H556.477C556.996 381.079 557.494 380.872 557.861 380.505C558.228 380.138 558.435 379.64 558.436 379.121V304.78C558.436 304.26 558.229 303.762 557.862 303.394C557.495 303.026 556.997 302.819 556.477 302.818H445.372C444.852 302.819 444.354 303.026 443.987 303.394C443.62 303.762 443.414 304.26 443.413 304.78Z" fill="#7510F6"/>
<path d="M438.4 394.929C438.607 395.188 438.87 395.397 439.169 395.541C439.469 395.684 439.797 395.757 440.129 395.756H561.115C561.446 395.755 561.772 395.681 562.071 395.539C562.37 395.396 562.633 395.189 562.841 394.932C563.05 394.675 563.198 394.375 563.276 394.054C563.354 393.732 563.359 393.397 563.291 393.073L561.413 384.155C561.335 383.791 561.168 383.452 560.925 383.17C560.683 382.888 560.374 382.67 560.027 382.538C559.775 382.439 559.507 382.389 559.237 382.389H441.999C441.729 382.389 441.461 382.439 441.209 382.538C440.862 382.67 440.553 382.888 440.311 383.17C440.069 383.452 439.901 383.791 439.823 384.155L437.945 393.073C437.878 393.397 437.884 393.731 437.963 394.052C438.042 394.373 438.191 394.673 438.4 394.929Z" fill="#2F2E41"/>
<path d="M555.086 386.23H557.943C558.183 386.23 558.378 386.036 558.378 385.796V384.429C558.378 384.189 558.183 383.995 557.943 383.995H555.086C554.846 383.995 554.651 384.189 554.651 384.429V385.796C554.651 386.036 554.846 386.23 555.086 386.23Z" fill="#3F3D56"/>
<path d="M547.633 386.23H550.491C550.73 386.23 550.925 386.036 550.925 385.796V384.429C550.925 384.189 550.73 383.995 550.491 383.995H547.633C547.393 383.995 547.199 384.189 547.199 384.429V385.796C547.199 386.036 547.393 386.23 547.633 386.23Z" fill="#3F3D56"/>
<path d="M540.18 386.23H543.038C543.278 386.23 543.472 386.036 543.472 385.796V384.429C543.472 384.189 543.278 383.995 543.038 383.995H540.18C539.94 383.995 539.746 384.189 539.746 384.429V385.796C539.746 386.036 539.94 386.23 540.18 386.23Z" fill="#3F3D56"/>
<path d="M532.728 386.23H535.585C535.825 386.23 536.02 386.036 536.02 385.796V384.429C536.02 384.189 535.825 383.995 535.585 383.995H532.728C532.488 383.995 532.293 384.189 532.293 384.429V385.796C532.293 386.036 532.488 386.23 532.728 386.23Z" fill="#3F3D56"/>
<path d="M525.275 386.23H528.133C528.373 386.23 528.567 386.036 528.567 385.796V384.429C528.567 384.189 528.373 383.995 528.133 383.995H525.275C525.035 383.995 524.841 384.189 524.841 384.429V385.796C524.841 386.036 525.035 386.23 525.275 386.23Z" fill="#3F3D56"/>
<path d="M517.822 386.23H520.68C520.92 386.23 521.114 386.036 521.114 385.796V384.429C521.114 384.189 520.92 383.995 520.68 383.995H517.822C517.582 383.995 517.388 384.189 517.388 384.429V385.796C517.388 386.036 517.582 386.23 517.822 386.23Z" fill="#3F3D56"/>
<path d="M510.37 386.23H513.227C513.467 386.23 513.662 386.036 513.662 385.796V384.429C513.662 384.189 513.467 383.995 513.227 383.995H510.37C510.13 383.995 509.935 384.189 509.935 384.429V385.796C509.935 386.036 510.13 386.23 510.37 386.23Z" fill="#3F3D56"/>
<path d="M502.917 386.23H505.775C506.015 386.23 506.209 386.036 506.209 385.796V384.429C506.209 384.189 506.015 383.995 505.775 383.995H502.917C502.677 383.995 502.483 384.189 502.483 384.429V385.796C502.483 386.036 502.677 386.23 502.917 386.23Z" fill="#3F3D56"/>
<path d="M495.464 386.23H498.322C498.562 386.23 498.756 386.036 498.756 385.796V384.429C498.756 384.189 498.562 383.995 498.322 383.995H495.464C495.225 383.995 495.03 384.189 495.03 384.429V385.796C495.03 386.036 495.225 386.23 495.464 386.23Z" fill="#3F3D56"/>
<path d="M488.012 386.23H490.869C491.109 386.23 491.304 386.036 491.304 385.796V384.429C491.304 384.189 491.109 383.995 490.869 383.995H488.012C487.772 383.995 487.577 384.189 487.577 384.429V385.796C487.577 386.036 487.772 386.23 488.012 386.23Z" fill="#3F3D56"/>
<path d="M480.559 386.23H483.417C483.657 386.23 483.851 386.036 483.851 385.796V384.429C483.851 384.189 483.657 383.995 483.417 383.995H480.559C480.319 383.995 480.125 384.189 480.125 384.429V385.796C480.125 386.036 480.319 386.23 480.559 386.23Z" fill="#3F3D56"/>
<path d="M473.106 386.23H475.964C476.204 386.23 476.398 386.036 476.398 385.796V384.429C476.398 384.189 476.204 383.995 475.964 383.995H473.106C472.867 383.995 472.672 384.189 472.672 384.429V385.796C472.672 386.036 472.867 386.23 473.106 386.23Z" fill="#3F3D56"/>
<path d="M465.654 386.23H468.511C468.751 386.23 468.946 386.036 468.946 385.796V384.429C468.946 384.189 468.751 383.995 468.511 383.995H465.654C465.414 383.995 465.22 384.189 465.22 384.429V385.796C465.22 386.036 465.414 386.23 465.654 386.23Z" fill="#3F3D56"/>
<path d="M458.201 386.23H461.059C461.299 386.23 461.493 386.036 461.493 385.796V384.429C461.493 384.189 461.299 383.995 461.059 383.995H458.201C457.961 383.995 457.767 384.189 457.767 384.429V385.796C457.767 386.036 457.961 386.23 458.201 386.23Z" fill="#3F3D56"/>
<path d="M450.749 386.23H453.606C453.846 386.23 454.041 386.036 454.041 385.796V384.429C454.041 384.189 453.846 383.995 453.606 383.995H450.749C450.509 383.995 450.314 384.189 450.314 384.429V385.796C450.314 386.036 450.509 386.23 450.749 386.23Z" fill="#3F3D56"/>
<path d="M443.296 386.23H446.154C446.393 386.23 446.588 386.036 446.588 385.796V384.429C446.588 384.189 446.393 383.995 446.154 383.995H443.296C443.056 383.995 442.862 384.189 442.862 384.429V385.796C442.862 386.036 443.056 386.23 443.296 386.23Z" fill="#3F3D56"/>
<path d="M555.174 389.956H558.031C558.271 389.956 558.466 389.761 558.466 389.522V388.155C558.466 387.915 558.271 387.72 558.031 387.72H555.174C554.934 387.72 554.739 387.915 554.739 388.155V389.522C554.739 389.761 554.934 389.956 555.174 389.956Z" fill="#3F3D56"/>
<path d="M547.721 389.956H550.579C550.819 389.956 551.013 389.761 551.013 389.522V388.155C551.013 387.915 550.819 387.72 550.579 387.72H547.721C547.481 387.72 547.287 387.915 547.287 388.155V389.522C547.287 389.761 547.481 389.956 547.721 389.956Z" fill="#3F3D56"/>
<path d="M540.268 389.956H543.126C543.366 389.956 543.56 389.761 543.56 389.522V388.155C543.56 387.915 543.366 387.72 543.126 387.72H540.268C540.028 387.72 539.834 387.915 539.834 388.155V389.522C539.834 389.761 540.028 389.956 540.268 389.956Z" fill="#3F3D56"/>
<path d="M532.816 389.956H535.673C535.913 389.956 536.108 389.761 536.108 389.522V388.155C536.108 387.915 535.913 387.72 535.673 387.72H532.816C532.576 387.72 532.381 387.915 532.381 388.155V389.522C532.381 389.761 532.576 389.956 532.816 389.956Z" fill="#3F3D56"/>
<path d="M525.363 389.956H528.221C528.461 389.956 528.655 389.761 528.655 389.522V388.155C528.655 387.915 528.461 387.72 528.221 387.72H525.363C525.123 387.72 524.929 387.915 524.929 388.155V389.522C524.929 389.761 525.123 389.956 525.363 389.956Z" fill="#3F3D56"/>
<path d="M517.91 389.956H520.768C521.008 389.956 521.202 389.761 521.202 389.522V388.155C521.202 387.915 521.008 387.72 520.768 387.72H517.91C517.67 387.72 517.476 387.915 517.476 388.155V389.522C517.476 389.761 517.67 389.956 517.91 389.956Z" fill="#3F3D56"/>
<path d="M510.458 389.956H513.315C513.555 389.956 513.75 389.761 513.75 389.522V388.155C513.75 387.915 513.555 387.72 513.315 387.72H510.458C510.218 387.72 510.023 387.915 510.023 388.155V389.522C510.023 389.761 510.218 389.956 510.458 389.956Z" fill="#3F3D56"/>
<path d="M503.005 389.956H505.863C506.103 389.956 506.297 389.761 506.297 389.522V388.155C506.297 387.915 506.103 387.72 505.863 387.72H503.005C502.765 387.72 502.571 387.915 502.571 388.155V389.522C502.571 389.761 502.765 389.956 503.005 389.956Z" fill="#3F3D56"/>
<path d="M495.552 389.956H498.41C498.65 389.956 498.844 389.761 498.844 389.522V388.155C498.844 387.915 498.65 387.72 498.41 387.72H495.552C495.313 387.72 495.118 387.915 495.118 388.155V389.522C495.118 389.761 495.313 389.956 495.552 389.956Z" fill="#3F3D56"/>
<path d="M488.1 389.956H490.957C491.197 389.956 491.392 389.761 491.392 389.522V388.155C491.392 387.915 491.197 387.72 490.957 387.72H488.1C487.86 387.72 487.666 387.915 487.666 388.155V389.522C487.666 389.761 487.86 389.956 488.1 389.956Z" fill="#3F3D56"/>
<path d="M480.647 389.956H483.505C483.745 389.956 483.939 389.761 483.939 389.522V388.155C483.939 387.915 483.745 387.72 483.505 387.72H480.647C480.407 387.72 480.213 387.915 480.213 388.155V389.522C480.213 389.761 480.407 389.956 480.647 389.956Z" fill="#3F3D56"/>
<path d="M473.195 389.956H476.052C476.292 389.956 476.487 389.761 476.487 389.522V388.155C476.487 387.915 476.292 387.72 476.052 387.72H473.195C472.955 387.72 472.76 387.915 472.76 388.155V389.522C472.76 389.761 472.955 389.956 473.195 389.956Z" fill="#3F3D56"/>
<path d="M465.742 389.956H468.6C468.839 389.956 469.034 389.761 469.034 389.522V388.155C469.034 387.915 468.839 387.72 468.6 387.72H465.742C465.502 387.72 465.308 387.915 465.308 388.155V389.522C465.308 389.761 465.502 389.956 465.742 389.956Z" fill="#3F3D56"/>
<path d="M458.289 389.956H461.147C461.387 389.956 461.581 389.761 461.581 389.522V388.155C461.581 387.915 461.387 387.72 461.147 387.72H458.289C458.049 387.72 457.855 387.915 457.855 388.155V389.522C457.855 389.761 458.049 389.956 458.289 389.956Z" fill="#3F3D56"/>
<path d="M450.837 389.956H453.694C453.934 389.956 454.129 389.761 454.129 389.522V388.155C454.129 387.915 453.934 387.72 453.694 387.72H450.837C450.597 387.72 450.402 387.915 450.402 388.155V389.522C450.402 389.761 450.597 389.956 450.837 389.956Z" fill="#3F3D56"/>
<path d="M443.384 389.956H446.242C446.482 389.956 446.676 389.761 446.676 389.522V388.155C446.676 387.915 446.482 387.72 446.242 387.72H443.384C443.144 387.72 442.95 387.915 442.95 388.155V389.522C442.95 389.761 443.144 389.956 443.384 389.956Z" fill="#3F3D56"/>
<path d="M493.317 394.426H522.259C522.499 394.426 522.693 394.232 522.693 393.992V392.625C522.693 392.385 522.499 392.191 522.259 392.191H493.317C493.077 392.191 492.882 392.385 492.882 392.625V393.992C492.882 394.232 493.077 394.426 493.317 394.426Z" fill="#3F3D56"/>
<path d="M462.654 319.082H460.124C459.357 319.082 458.735 319.704 458.735 320.471C458.735 321.237 459.357 321.859 460.124 321.859H462.654C463.421 321.859 464.042 321.237 464.042 320.471C464.042 319.704 463.421 319.082 462.654 319.082Z" fill="white"/>
<path d="M491.588 319.082H489.058C488.291 319.082 487.669 319.704 487.669 320.471C487.669 321.237 488.291 321.859 489.058 321.859H491.588C492.355 321.859 492.977 321.237 492.977 320.471C492.977 319.704 492.355 319.082 491.588 319.082Z" fill="white"/>
<path d="M499.786 319.082H497.256C496.489 319.082 495.867 319.704 495.867 320.471C495.867 321.237 496.489 321.859 497.256 321.859H499.786C500.553 321.859 501.175 321.237 501.175 320.471C501.175 319.704 500.553 319.082 499.786 319.082Z" fill="white"/>
<path d="M483.718 318.851H467.994C467.227 318.851 466.605 319.472 466.605 320.239C466.605 321.006 467.227 321.628 467.994 321.628H483.718C484.485 321.628 485.107 321.006 485.107 320.239C485.107 319.472 484.485 318.851 483.718 318.851Z" fill="white"/>
<path d="M522.297 318.851H506.573C505.806 318.851 505.184 319.472 505.184 320.239C505.184 321.006 505.806 321.628 506.573 321.628H522.297C523.064 321.628 523.686 321.006 523.686 320.239C523.686 319.472 523.064 318.851 522.297 318.851Z" fill="white"/>
<path d="M470.369 325.35H467.84C467.072 325.35 466.451 325.971 466.451 326.738C466.451 327.505 467.072 328.127 467.84 328.127H470.369C471.136 328.127 471.758 327.505 471.758 326.738C471.758 325.971 471.136 325.35 470.369 325.35Z" fill="white"/>
<path d="M499.304 325.35H496.774C496.007 325.35 495.385 325.971 495.385 326.738C495.385 327.505 496.007 328.127 496.774 328.127H499.304C500.071 328.127 500.693 327.505 500.693 326.738C500.693 325.971 500.071 325.35 499.304 325.35Z" fill="white"/>
<path d="M507.502 325.35H504.972C504.205 325.35 503.583 325.971 503.583 326.738C503.583 327.505 504.205 328.127 504.972 328.127H507.502C508.269 328.127 508.891 327.505 508.891 326.738C508.891 325.971 508.269 325.35 507.502 325.35Z" fill="white"/>
<path d="M491.433 325.118H475.71C474.943 325.118 474.321 325.74 474.321 326.507C474.321 327.274 474.943 327.895 475.71 327.895H491.433C492.201 327.895 492.822 327.274 492.822 326.507C492.822 325.74 492.201 325.118 491.433 325.118Z" fill="white"/>
<path d="M530.013 325.118H514.289C513.522 325.118 512.9 325.74 512.9 326.507C512.9 327.274 513.522 327.895 514.289 327.895H530.013C530.78 327.895 531.401 327.274 531.401 326.507C531.401 325.74 530.78 325.118 530.013 325.118Z" fill="white"/>
<path d="M478.085 331.617H475.555C474.788 331.617 474.167 332.239 474.167 333.006C474.167 333.773 474.788 334.395 475.555 334.395H478.085C478.852 334.395 479.474 333.773 479.474 333.006C479.474 332.239 478.852 331.617 478.085 331.617Z" fill="white"/>
<path d="M507.02 331.617H504.49C503.723 331.617 503.101 332.239 503.101 333.006C503.101 333.773 503.723 334.395 504.49 334.395H507.02C507.787 334.395 508.408 333.773 508.408 333.006C508.408 332.239 507.787 331.617 507.02 331.617Z" fill="white"/>
<path d="M515.218 331.617H512.688C511.921 331.617 511.299 332.239 511.299 333.006C511.299 333.773 511.921 334.395 512.688 334.395H515.218C515.985 334.395 516.606 333.773 516.606 333.006C516.606 332.239 515.985 331.617 515.218 331.617Z" fill="white"/>
<path d="M499.149 331.386H483.426C482.659 331.386 482.037 332.008 482.037 332.774C482.037 333.541 482.659 334.163 483.426 334.163H499.149C499.916 334.163 500.538 333.541 500.538 332.774C500.538 332.008 499.916 331.386 499.149 331.386Z" fill="white"/>
<path d="M537.728 331.386H522.005C521.238 331.386 520.616 332.008 520.616 332.774C520.616 333.541 521.238 334.163 522.005 334.163H537.728C538.495 334.163 539.117 333.541 539.117 332.774C539.117 332.008 538.495 331.386 537.728 331.386Z" fill="white"/>
<path d="M485.801 337.885H483.271C482.504 337.885 481.882 338.507 481.882 339.274C481.882 340.041 482.504 340.662 483.271 340.662H485.801C486.568 340.662 487.19 340.041 487.19 339.274C487.19 338.507 486.568 337.885 485.801 337.885Z" fill="white"/>
<path d="M514.735 337.885H512.206C511.438 337.885 510.817 338.507 510.817 339.274C510.817 340.041 511.438 340.662 512.206 340.662H514.735C515.502 340.662 516.124 340.041 516.124 339.274C516.124 338.507 515.502 337.885 514.735 337.885Z" fill="white"/>
<path d="M522.933 337.885H520.404C519.637 337.885 519.015 338.507 519.015 339.274C519.015 340.041 519.637 340.662 520.404 340.662H522.933C523.7 340.662 524.322 340.041 524.322 339.274C524.322 338.507 523.7 337.885 522.933 337.885Z" fill="white"/>
<path d="M506.865 337.654H491.141C490.374 337.654 489.753 338.275 489.753 339.042C489.753 339.809 490.374 340.431 491.141 340.431H506.865C507.632 340.431 508.254 339.809 508.254 339.042C508.254 338.275 507.632 337.654 506.865 337.654Z" fill="white"/>
<path d="M491.588 362.808H489.058C488.291 362.808 487.669 363.43 487.669 364.197C487.669 364.964 488.291 365.585 489.058 365.585H491.588C492.355 365.585 492.977 364.964 492.977 364.197C492.977 363.43 492.355 362.808 491.588 362.808Z" fill="white"/>
<path d="M499.786 362.808H497.256C496.489 362.808 495.867 363.43 495.867 364.197C495.867 364.964 496.489 365.585 497.256 365.585H499.786C500.553 365.585 501.175 364.964 501.175 364.197C501.175 363.43 500.553 362.808 499.786 362.808Z" fill="white"/>
<path d="M522.297 363.04H506.573C505.806 363.04 505.184 363.661 505.184 364.428C505.184 365.195 505.806 365.817 506.573 365.817H522.297C523.064 365.817 523.686 365.195 523.686 364.428C523.686 363.661 523.064 363.04 522.297 363.04Z" fill="white"/>
<path d="M462.654 362.808H460.124C459.357 362.808 458.735 363.43 458.735 364.197C458.735 364.964 459.357 365.585 460.124 365.585H462.654C463.421 365.585 464.042 364.964 464.042 364.197C464.042 363.43 463.421 362.808 462.654 362.808Z" fill="white"/>
<path d="M483.718 363.04H467.994C467.227 363.04 466.605 363.661 466.605 364.428C466.605 365.195 467.227 365.817 467.994 365.817H483.718C484.485 365.817 485.107 365.195 485.107 364.428C485.107 363.661 484.485 363.04 483.718 363.04Z" fill="white"/>
<path d="M470.369 356.541H467.84C467.072 356.541 466.451 357.162 466.451 357.929C466.451 358.696 467.072 359.318 467.84 359.318H470.369C471.136 359.318 471.758 358.696 471.758 357.929C471.758 357.162 471.136 356.541 470.369 356.541Z" fill="white"/>
<path d="M499.304 356.541H496.774C496.007 356.541 495.385 357.162 495.385 357.929C495.385 358.696 496.007 359.318 496.774 359.318H499.304C500.071 359.318 500.693 358.696 500.693 357.929C500.693 357.162 500.071 356.541 499.304 356.541Z" fill="white"/>
<path d="M507.502 356.541H504.972C504.205 356.541 503.583 357.162 503.583 357.929C503.583 358.696 504.205 359.318 504.972 359.318H507.502C508.269 359.318 508.891 358.696 508.891 357.929C508.891 357.162 508.269 356.541 507.502 356.541Z" fill="white"/>
<path d="M491.433 356.772H475.71C474.943 356.772 474.321 357.394 474.321 358.161C474.321 358.927 474.943 359.549 475.71 359.549H491.433C492.201 359.549 492.822 358.927 492.822 358.161C492.822 357.394 492.201 356.772 491.433 356.772Z" fill="white"/>
<path d="M478.085 350.273H475.555C474.788 350.273 474.167 350.895 474.167 351.661C474.167 352.428 474.788 353.05 475.555 353.05H478.085C478.852 353.05 479.474 352.428 479.474 351.661C479.474 350.895 478.852 350.273 478.085 350.273Z" fill="white"/>
<path d="M507.02 350.273H504.49C503.723 350.273 503.101 350.895 503.101 351.661C503.101 352.428 503.723 353.05 504.49 353.05H507.02C507.787 353.05 508.408 352.428 508.408 351.661C508.408 350.895 507.787 350.273 507.02 350.273Z" fill="white"/>
<path d="M515.218 350.273H512.688C511.921 350.273 511.299 350.895 511.299 351.661C511.299 352.428 511.921 353.05 512.688 353.05H515.218C515.985 353.05 516.606 352.428 516.606 351.661C516.606 350.895 515.985 350.273 515.218 350.273Z" fill="white"/>
<path d="M499.149 350.504H483.426C482.659 350.504 482.037 351.126 482.037 351.893C482.037 352.66 482.659 353.281 483.426 353.281H499.149C499.916 353.281 500.538 352.66 500.538 351.893C500.538 351.126 499.916 350.504 499.149 350.504Z" fill="white"/>
<path d="M485.801 344.005H483.271C482.504 344.005 481.882 344.627 481.882 345.394C481.882 346.16 482.504 346.782 483.271 346.782H485.801C486.568 346.782 487.19 346.16 487.19 345.394C487.19 344.627 486.568 344.005 485.801 344.005Z" fill="white"/>
<path d="M514.735 344.005H512.206C511.438 344.005 510.817 344.627 510.817 345.394C510.817 346.16 511.438 346.782 512.206 346.782H514.735C515.502 346.782 516.124 346.16 516.124 345.394C516.124 344.627 515.502 344.005 514.735 344.005Z" fill="white"/>
<path d="M522.933 344.005H520.404C519.637 344.005 519.015 344.627 519.015 345.394C519.015 346.16 519.637 346.782 520.404 346.782H522.933C523.7 346.782 524.322 346.16 524.322 345.394C524.322 344.627 523.7 344.005 522.933 344.005Z" fill="white"/>
<path d="M506.865 344.237H491.141C490.374 344.237 489.753 344.858 489.753 345.625C489.753 346.392 490.374 347.014 491.141 347.014H506.865C507.632 347.014 508.254 346.392 508.254 345.625C508.254 344.858 507.632 344.237 506.865 344.237Z" fill="white"/>
<path d="M449.203 436.263L437.327 417.494L474.605 387.784L489.992 370.741C491.991 368.527 494.536 366.876 497.374 365.953C500.211 365.031 503.24 364.869 506.16 365.483C509.079 366.098 511.786 367.468 514.01 369.456C516.234 371.445 517.897 373.982 518.833 376.814C520.22 381.011 519.922 385.583 518.001 389.564C516.081 393.545 512.688 396.625 508.539 398.153L484.208 407.115L449.203 436.263Z" fill="#FFB6B6"/>
<path d="M170.538 300.175V391.398H234.46V300.175C234.461 299.519 234.252 298.88 233.863 298.352C233.474 297.824 232.925 297.434 232.298 297.24C232.003 297.143 231.693 297.095 231.382 297.098H173.625C173.221 297.097 172.82 297.176 172.445 297.33C172.071 297.485 171.731 297.711 171.444 297.997C171.157 298.283 170.93 298.622 170.774 298.996C170.619 299.37 170.539 299.771 170.538 300.175ZM195.484 331.52C195.501 329.722 196.227 328.003 197.505 326.737C198.783 325.471 200.509 324.761 202.308 324.761C204.107 324.761 205.833 325.471 207.111 326.737C208.389 328.003 209.115 329.722 209.132 331.52V342.105C209.122 343.908 208.399 345.634 207.121 346.906C205.842 348.178 204.112 348.892 202.308 348.892C200.504 348.892 198.774 348.178 197.495 346.906C196.217 345.634 195.494 343.908 195.484 342.105V331.52Z" fill="#2F2E41"/>
<path d="M170.343 388.481V397.278C170.344 397.733 170.525 398.17 170.847 398.493C171.168 398.816 171.604 399 172.06 399.003H232.939C233.395 399.001 233.832 398.818 234.154 398.495C234.475 398.171 234.656 397.734 234.656 397.278V388.481H170.343Z" fill="#3F3D56"/>
<path d="M69.9804 162.736V329.296C69.9821 331.419 70.8262 333.454 72.3274 334.955C73.8287 336.456 75.8643 337.3 77.9873 337.301H324.867C326.99 337.3 329.026 336.456 330.527 334.955C332.028 333.454 332.872 331.419 332.874 329.296V162.736C332.869 160.616 332.024 158.583 330.523 157.085C329.022 155.586 326.988 154.743 324.867 154.74H77.9873C75.8661 154.743 73.8324 155.586 72.3317 157.085C70.8309 158.583 69.9855 160.616 69.9804 162.736Z" fill="#3F3D56"/>
<path d="M75.7721 164.809V327.242C75.7741 328.376 76.2255 329.463 77.0276 330.265C77.8297 331.067 78.917 331.518 80.0513 331.52H322.812C323.946 331.518 325.034 331.067 325.836 330.265C326.638 329.463 327.089 328.376 327.091 327.242V164.809C327.091 163.673 326.641 162.584 325.838 161.78C325.036 160.977 323.948 160.524 322.812 160.521H80.0513C78.9156 160.524 77.8273 160.977 77.025 161.78C76.2228 162.584 75.7722 163.673 75.7721 164.809Z" fill="white"/>
<path d="M120.824 398.407C121.071 398.717 121.385 398.967 121.743 399.138C122.1 399.309 122.492 399.397 122.888 399.395H267.315C267.71 399.394 268.1 399.306 268.457 399.136C268.813 398.965 269.127 398.718 269.376 398.411C269.625 398.105 269.802 397.746 269.895 397.363C269.988 396.979 269.994 396.579 269.913 396.193L267.671 385.546C267.578 385.112 267.378 384.708 267.089 384.37C266.8 384.033 266.431 383.774 266.016 383.616C265.716 383.498 265.396 383.437 265.073 383.438H125.121C124.799 383.437 124.479 383.498 124.178 383.616C123.763 383.774 123.395 384.033 123.106 384.37C122.817 384.708 122.616 385.112 122.524 385.546L120.282 396.193C120.202 396.579 120.209 396.978 120.303 397.361C120.397 397.744 120.575 398.102 120.824 398.407Z" fill="#2F2E41"/>
<path d="M314.934 182.897H87.7835C87.5474 182.892 87.3227 182.795 87.1576 182.626C86.9924 182.457 86.9 182.23 86.9 181.994C86.9 181.758 86.9924 181.531 87.1576 181.363C87.3227 181.194 87.5474 181.096 87.7835 181.091H314.934C315.17 181.096 315.395 181.194 315.56 181.363C315.725 181.531 315.817 181.758 315.817 181.994C315.817 182.23 315.725 182.457 315.56 182.626C315.395 182.795 315.17 182.892 314.934 182.897Z" fill="#3F3D56"/>
<path d="M103.246 176.48C106.17 176.48 108.54 174.058 108.54 171.069C108.54 168.081 106.17 165.659 103.246 165.659C100.322 165.659 97.952 168.081 97.952 171.069C97.952 174.058 100.322 176.48 103.246 176.48Z" fill="#3F3D56"/>
<path d="M121.534 176.48C124.457 176.48 126.828 174.058 126.828 171.069C126.828 168.081 124.457 165.659 121.534 165.659C118.61 165.659 116.24 168.081 116.24 171.069C116.24 174.058 118.61 176.48 121.534 176.48Z" fill="#3F3D56"/>
<path d="M139.822 176.48C142.745 176.48 145.115 174.058 145.115 171.069C145.115 168.081 142.745 165.659 139.822 165.659C136.898 165.659 134.528 168.081 134.528 171.069C134.528 174.058 136.898 176.48 139.822 176.48Z" fill="#3F3D56"/>
<path d="M303.921 166.997H290.932C290.676 167.003 290.431 167.109 290.252 167.293C290.072 167.476 289.972 167.723 289.972 167.98C289.972 168.236 290.072 168.483 290.252 168.667C290.431 168.85 290.676 168.956 290.932 168.962H303.921C304.18 168.959 304.426 168.854 304.608 168.67C304.789 168.486 304.891 168.238 304.891 167.98C304.891 167.721 304.789 167.473 304.608 167.289C304.426 167.106 304.18 167 303.921 166.997Z" fill="#3F3D56"/>
<path d="M303.921 170.688H290.932C290.675 170.694 290.431 170.8 290.251 170.983C290.071 171.167 289.971 171.414 289.971 171.671C289.971 171.928 290.071 172.175 290.251 172.358C290.431 172.542 290.675 172.648 290.932 172.654H303.921C304.18 172.651 304.427 172.546 304.609 172.362C304.791 172.178 304.893 171.93 304.893 171.671C304.893 171.412 304.791 171.164 304.609 170.98C304.427 170.796 304.18 170.691 303.921 170.688Z" fill="#3F3D56"/>
<path d="M303.921 174.379H290.932C290.676 174.385 290.431 174.491 290.252 174.675C290.072 174.859 289.972 175.105 289.972 175.362C289.972 175.619 290.072 175.865 290.252 176.049C290.431 176.233 290.676 176.339 290.932 176.345H303.921C304.18 176.341 304.426 176.236 304.608 176.052C304.789 175.868 304.891 175.62 304.891 175.362C304.891 175.104 304.789 174.856 304.608 174.672C304.426 174.488 304.18 174.383 303.921 174.379Z" fill="#3F3D56"/>
<path d="M617.062 392.342C617.454 393.483 618.198 394.47 619.186 395.162C620.175 395.854 621.357 396.215 622.563 396.194L646.132 395.587C647.347 395.564 648.522 395.148 649.481 394.401C650.44 393.654 651.132 392.617 651.453 391.445L654.788 355.789C655.971 356.325 657.26 356.59 658.558 356.564C659.687 356.536 660.799 356.285 661.83 355.827C662.862 355.37 663.793 354.713 664.571 353.895C665.349 353.078 665.958 352.115 666.364 351.061C666.769 350.008 666.964 348.886 666.935 347.758C666.907 346.629 666.657 345.518 666.199 344.486C665.741 343.455 665.084 342.524 664.266 341.746C663.448 340.969 662.485 340.36 661.432 339.954C660.378 339.548 659.255 339.354 658.127 339.383C657.608 339.381 657.09 339.435 656.582 339.543C656.03 338.946 655.359 338.471 654.612 338.149C653.866 337.827 653.059 337.664 652.246 337.673L615.992 338.609C615.691 338.62 615.392 338.657 615.098 338.72C614.303 338.868 613.549 339.185 612.886 339.649C612.224 340.112 611.669 340.713 611.258 341.409C610.847 342.106 610.59 342.882 610.505 343.686C610.419 344.49 610.507 345.303 610.762 346.071L617.062 392.342ZM655.472 353.368L657.845 344.872C658.115 343.89 658.121 342.855 657.863 341.87C657.979 341.87 658.08 341.815 658.195 341.815C659.823 341.781 661.397 342.394 662.573 343.519C663.749 344.644 664.431 346.189 664.469 347.816C664.507 349.443 663.898 351.019 662.776 352.197C661.654 353.376 660.11 354.062 658.483 354.105C657.431 354.138 656.39 353.883 655.472 353.368Z" fill="#2F2E41"/>
<path d="M615.098 338.72C615.87 343.135 624.554 346.239 634.996 345.699C644.598 345.257 652.449 341.886 653.887 337.891C653.355 337.734 652.801 337.66 652.246 337.673L615.992 338.609C615.691 338.62 615.392 338.657 615.098 338.72Z" fill="#3F3D56"/>
<path d="M636.909 372.748C636.957 372.736 637.003 372.716 637.044 372.689L642.162 369.34C642.224 369.3 642.275 369.244 642.31 369.18C642.345 369.115 642.364 369.042 642.364 368.968C642.364 368.894 642.345 368.822 642.31 368.757C642.275 368.692 642.224 368.637 642.162 368.596L636.842 365.112C636.794 365.08 636.739 365.058 636.681 365.047C636.624 365.036 636.565 365.036 636.507 365.048C636.45 365.06 636.396 365.083 636.347 365.115C636.299 365.148 636.257 365.19 636.225 365.239C636.193 365.288 636.171 365.343 636.16 365.401C636.149 365.458 636.15 365.517 636.162 365.575C636.174 365.632 636.197 365.686 636.23 365.734C636.264 365.783 636.306 365.824 636.355 365.856L641.106 368.967L636.557 371.945C636.469 372.003 636.404 372.09 636.374 372.191C636.344 372.292 636.351 372.4 636.393 372.496C636.435 372.592 636.51 372.671 636.605 372.717C636.7 372.763 636.807 372.774 636.909 372.748H636.909Z" fill="#6C63FF"/>
<path d="M628.825 373.121C628.911 373.099 628.989 373.053 629.048 372.987C629.107 372.92 629.145 372.838 629.157 372.751C629.169 372.663 629.154 372.573 629.115 372.494C629.076 372.414 629.014 372.348 628.938 372.304L624.22 369.6L628.78 366.214C628.827 366.179 628.866 366.135 628.896 366.085C628.926 366.035 628.946 365.979 628.954 365.922C628.963 365.864 628.96 365.805 628.946 365.749C628.931 365.692 628.906 365.639 628.871 365.592C628.836 365.545 628.793 365.505 628.743 365.476C628.693 365.446 628.637 365.426 628.579 365.417C628.522 365.409 628.463 365.412 628.406 365.426C628.35 365.44 628.296 365.465 628.249 365.5L623.144 369.292C623.085 369.336 623.037 369.394 623.006 369.461C622.975 369.527 622.961 369.601 622.965 369.675C622.969 369.748 622.992 369.82 623.031 369.883C623.07 369.945 623.124 369.997 623.188 370.034L628.495 373.076C628.595 373.133 628.713 373.15 628.825 373.121Z" fill="#6C63FF"/>
<path d="M636.4 375.684C636.443 375.673 636.485 375.656 636.522 375.632C636.572 375.602 636.616 375.562 636.65 375.515C636.685 375.468 636.71 375.414 636.723 375.357C636.737 375.301 636.74 375.242 636.731 375.184C636.722 375.126 636.702 375.071 636.671 375.021L629.416 363.095C629.354 362.994 629.255 362.922 629.141 362.894C629.026 362.867 628.905 362.886 628.804 362.947C628.704 363.008 628.632 363.107 628.604 363.222C628.576 363.336 628.594 363.457 628.656 363.558L635.911 375.484C635.961 375.565 636.035 375.628 636.123 375.664C636.211 375.7 636.308 375.707 636.4 375.684Z" fill="#6C63FF"/>
<path d="M228.499 231.995H189.184C187.581 231.995 186.28 233.295 186.28 234.898V238.739C186.28 240.342 187.581 241.642 189.184 241.642H228.499C230.103 241.642 231.403 240.342 231.403 238.739V234.898C231.403 233.295 230.103 231.995 228.499 231.995Z" fill="#7510F6"/>
<path d="M251.415 251.289H166.268C164.664 251.289 163.364 252.589 163.364 254.192V258.032C163.364 259.636 164.664 260.936 166.268 260.936H251.415C253.019 260.936 254.319 259.636 254.319 258.032V254.192C254.319 252.589 253.019 251.289 251.415 251.289Z" fill="#E6E6E6"/>
<path d="M251.415 270.582H166.268C164.664 270.582 163.364 271.882 163.364 273.486V277.326C163.364 278.929 164.664 280.229 166.268 280.229H251.415C253.019 280.229 254.319 278.929 254.319 277.326V273.486C254.319 271.882 253.019 270.582 251.415 270.582Z" fill="#E6E6E6"/>
<path d="M258.633 335.189L258.826 335.798L258.836 335.818L264.641 353.463L271.319 373.797L283.884 412.009L284.006 417.945V417.966L284.939 465.716L282.351 472.189L285.264 482.803C285.264 482.803 283.924 466.759 276.739 475.973C272.669 481.208 267.909 486.566 264.002 491.588C269.696 493.892 275.481 495.975 281.357 497.839C282.625 498.245 283.904 498.63 285.183 499.016C285.457 499.097 285.731 499.178 286.005 499.259C305.484 505.018 325.621 508.255 345.924 508.888C346.98 508.919 348.015 508.939 349.02 508.959C349.375 508.97 349.72 508.98 350.065 508.98C351.202 508.99 352.328 509 353.465 509C355.758 509 358.042 508.966 360.315 508.899C377.142 508.424 393.87 506.163 410.217 502.151C410.106 495.403 409.801 487.52 409.365 479.098C409.162 474.968 404.605 470.493 404.331 466.171C404.138 462.924 408.228 459.87 408.015 456.572C406.635 436.269 404.91 444.063 403.631 429.685C403.499 428.275 403.377 426.925 403.265 425.636C402.443 416.403 401.875 410.629 401.875 410.629L407.335 376.222L415.911 322.201L415.251 321.116L414.511 320.75L369.277 298.367L366.821 292.076C366.105 290.264 364.864 288.707 363.256 287.605C361.648 286.504 359.747 285.909 357.798 285.897L328.001 285.775C326.455 285.768 324.929 286.13 323.551 286.83C322.172 287.531 320.981 288.55 320.075 289.803L312.006 300.975L258.633 335.189Z" fill="#3F3D56"/>
<path d="M290.755 403.507L284.006 417.945L279.398 427.808L271.472 469.298L267.503 473.508L264.104 458.602L228.519 466.501C227.352 460.017 228.207 466.72 227.486 459.607C227.689 459.404 227.902 459.202 228.116 458.999C228.684 458.471 229.161 457.974 229.151 457.497C228.745 432.962 229.963 391.209 240.132 365.913C241.725 361.783 243.825 357.867 246.384 354.255C246.587 353.981 246.779 353.707 246.972 353.433C251.661 346.868 254.624 340.404 258.826 335.808V335.798C258.852 335.777 258.876 335.753 258.897 335.727C258.912 335.719 258.926 335.709 258.938 335.696L287.801 320.395L289.039 355.178L289.922 380.179L290.755 403.507Z" fill="#3F3D56"/>
<path d="M394.831 407.608L403.261 425.641L406.204 431.922L414.128 473.408L418.083 477.608L421.491 462.705L423.092 462.377L451.969 456.397L460.386 483.122C462.283 479.962 463.03 476.244 462.501 472.597C461.973 468.949 460.2 465.596 457.484 463.104C456.91 462.585 456.431 462.078 456.444 461.599C456.923 432.743 455.158 380.051 439.214 358.364C434.15 351.481 431.112 344.626 426.691 339.837C426.678 339.824 426.678 339.81 426.664 339.81L415.907 322.2L415.25 321.119L414.511 320.75L394.831 407.608Z" fill="#3F3D56"/>
<path d="M343.76 277.297C365.654 277.297 383.402 259.553 383.402 237.664C383.402 215.775 365.654 198.031 343.76 198.031C321.867 198.031 304.119 215.775 304.119 237.664C304.119 259.553 321.867 277.297 343.76 277.297Z" fill="#FFB6B6"/>
<path d="M397.341 209.981C397.033 209.652 396.663 209.39 396.252 209.208C395.841 209.026 395.397 208.929 394.948 208.922L395.544 207.268C395.738 206.747 395.791 206.183 395.696 205.635C395.601 205.087 395.362 204.574 395.003 204.149C394.645 203.723 394.18 203.401 393.656 203.214C393.132 203.028 392.567 202.984 392.021 203.087L389.85 203.505L390.054 202.056C390.133 201.516 390.069 200.965 389.87 200.457C389.671 199.949 389.343 199.501 388.918 199.158C388.494 198.815 387.987 198.589 387.449 198.501C386.91 198.414 386.358 198.468 385.846 198.658C385.381 198.841 384.881 198.918 384.382 198.882C383.883 198.847 383.399 198.7 382.964 198.453C382.527 198.214 382.148 197.882 381.853 197.481C381.558 197.08 381.354 196.62 381.256 196.132L380.499 192.485L380.419 192.289C376.736 186.152 369.655 181.687 360.989 180.05C353.276 178.583 345.367 179.33 337.743 180.033C334.718 180.317 331.301 180.637 328.455 182.381C326.035 183.875 323.988 186.864 324.407 189.879C316.889 187.575 308.829 192.174 304.834 197.973C300.101 204.875 299.327 213.521 299.203 220.281C298.865 236.273 302.165 249.357 308.989 259.177C309.487 259.888 309.612 261.374 310.599 261.872L310.395 261.543C311.498 262.094 312.619 262.984 312.2 263.935C310.999 266.675 318.98 272.732 324.602 274.733C334.86 278.389 348.499 278.078 358.089 276.761L358.427 274.493C361.888 274.022 364.326 273.123 365.011 271.718C366.221 270.686 367.252 269.761 368.151 268.907L368.16 268.898C368.178 268.881 368.213 268.854 368.231 268.836C372.564 264.682 373.569 262.316 374.023 258.714C374.459 255.183 373.685 251.599 372.893 248.37C389.565 250.949 366.327 230.616 381.861 226.685C382.039 226.63 382.22 226.585 382.403 226.551C382.857 226.445 383.311 226.338 383.747 226.213C385.848 225.643 387.86 224.784 389.725 223.661C394.067 221.019 395.499 217.514 397.741 213.565C398.065 213.003 398.2 212.352 398.128 211.707C398.056 211.063 397.78 210.458 397.341 209.981Z" fill="#2F2E41"/>
<path d="M483.967 410.429C483.958 411.986 483.94 414.165 483.869 416.86C483.86 417.234 483.851 417.616 483.842 418.007C483.726 422.962 483.611 427.115 483.424 431.732C483.415 432.052 483.406 432.363 483.388 432.684C483.139 439.123 482.748 446.621 482.072 458.496C480.817 480.43 478.629 461.511 476.431 469.205C476.324 469.587 476.209 470.041 476.102 470.575C475.769 472.511 475.208 474.401 474.429 476.205C473.264 476.899 472.063 477.566 470.88 478.233C467.508 480.11 464.083 481.915 460.631 483.632C458.691 484.592 456.743 485.535 454.786 486.442C454.475 486.585 454.172 486.727 453.87 486.861C443.847 491.495 433.517 495.436 422.954 498.655C420.89 499.277 418.835 499.882 416.753 500.443C414.582 501.047 412.412 501.617 410.214 502.15C393.867 506.163 377.139 508.426 360.313 508.901C358.045 508.972 355.758 508.999 353.463 508.999C352.324 508.999 351.203 508.99 350.064 508.981C349.717 508.981 349.37 508.972 349.023 508.964C348.018 508.937 346.977 508.919 345.927 508.892C325.624 508.259 305.487 505.022 286.009 499.26L285.182 499.019C283.901 498.628 282.628 498.246 281.356 497.836C275.484 495.977 269.699 493.896 263.999 491.592C259.648 489.84 255.348 487.96 251.099 485.953C251.06 485.943 251.024 485.925 250.992 485.9C250.102 485.491 249.204 485.064 248.314 484.628C248.199 484.566 248.074 484.503 247.949 484.441C244.631 482.822 241.348 481.126 238.101 479.353C235.37 473.083 231.526 471.882 229.142 466.367C228.448 464.729 227.947 463.016 227.648 461.262C227.648 461.244 227.639 461.226 227.639 461.2C227.888 464.508 226.58 455.329 227.63 461.164C227.621 461.057 227.612 460.942 227.603 460.808C227.576 460.488 227.541 460.097 227.487 459.607C224.436 429.819 224.632 395.753 223.306 367.682C223.217 365.867 223.125 364.13 223.03 362.47C223.004 361.918 222.968 361.376 222.932 360.842C222.995 360.682 223.066 360.513 223.146 360.353C223.163 360.307 223.184 360.262 223.208 360.219C223.234 360.164 223.264 360.111 223.297 360.059C223.315 360.032 223.342 359.997 223.359 359.97C223.372 359.94 223.387 359.91 223.404 359.881C223.484 359.757 223.573 359.623 223.671 359.499C223.715 359.445 223.751 359.401 223.795 359.356C223.826 359.311 223.862 359.269 223.902 359.232C223.929 359.189 223.962 359.15 224 359.116C224.036 359.081 224.071 359.036 224.116 358.992C224.135 358.964 224.159 358.94 224.187 358.921C224.257 358.84 224.335 358.765 224.418 358.698C224.735 358.406 225.075 358.139 225.432 357.898C225.557 357.818 225.69 357.738 225.815 357.649C226.711 357.113 227.655 356.66 228.635 356.297C228.973 356.172 229.311 356.057 229.676 355.932C229.809 355.897 229.934 355.852 230.067 355.808C230.263 355.745 230.459 355.683 230.663 355.639C231.678 355.336 232.772 355.078 233.955 354.838C234.098 354.811 234.249 354.785 234.4 354.749C234.614 354.705 234.836 354.669 235.058 354.634C235.361 354.58 235.672 354.527 235.984 354.473C238.626 354.055 241.624 353.744 244.934 353.539C245.245 353.522 245.556 353.504 245.868 353.486C246.232 353.468 246.597 353.451 246.971 353.433C247.282 353.415 247.603 353.406 247.923 353.397C248.234 353.379 248.554 353.37 248.884 353.362C249.782 353.335 250.707 353.308 251.65 353.29C254.337 353.237 257.166 353.255 260.138 353.317C261.517 353.353 262.922 353.388 264.364 353.451C264.462 353.451 264.551 353.459 264.639 353.459C265.894 353.504 267.157 353.557 268.456 353.628C269.364 353.673 270.28 353.717 271.196 353.771C272.059 353.824 272.931 353.877 273.812 353.94C274.497 353.975 275.182 354.029 275.876 354.073C276.463 354.118 277.05 354.162 277.637 354.198L278.438 354.251C278.874 354.287 279.31 354.313 279.755 354.358C280.733 354.438 281.712 354.518 282.708 354.598C283.696 354.687 284.701 354.776 285.707 354.865C286.712 354.954 287.726 355.052 288.74 355.149C288.847 355.158 288.945 355.167 289.043 355.176C289.968 355.274 290.893 355.363 291.827 355.461C292.041 355.478 292.263 355.496 292.477 355.523C293.367 355.612 294.275 355.717 295.174 355.813C295.45 355.842 295.724 355.871 296.001 355.901C296.705 355.978 297.399 356.045 298.108 356.128C299.042 356.235 299.994 356.332 300.92 356.457C301.64 356.537 302.361 356.617 303.081 356.706C304.211 356.839 305.359 356.982 306.507 357.133C306.943 357.186 307.379 357.24 307.814 357.302C311.088 357.711 314.398 358.165 317.761 358.636C322.859 359.357 328.036 360.139 333.25 360.984C338.472 361.829 343.724 362.722 349.006 363.662C350.34 363.902 351.675 364.142 353.018 364.391C353.623 364.506 354.228 364.622 354.833 364.738C355.865 364.924 356.897 365.12 357.929 365.316C358.961 365.512 359.993 365.707 361.025 365.912C362.253 366.152 363.489 366.392 364.717 366.632C372.804 368.233 380.846 369.941 388.693 371.729C389.983 372.022 391.273 372.325 392.554 372.618C395.116 373.214 397.655 373.819 400.17 374.433C400.864 374.593 401.549 374.762 402.234 374.931C403.942 375.358 405.65 375.785 407.331 376.221L407.625 376.301C408.862 376.603 410.072 376.914 411.282 377.235C414.137 377.982 416.946 378.738 419.707 379.503C421.539 380.01 423.351 380.523 425.142 381.042C427.82 381.815 430.445 382.598 432.998 383.39C433.63 383.585 434.261 383.781 434.884 383.968C436.752 384.546 438.594 385.133 440.382 385.72C441.806 386.183 443.194 386.654 444.564 387.125C445.934 387.597 447.277 388.068 448.594 388.54C449.439 388.842 450.275 389.162 451.111 389.465C452.312 389.909 453.496 390.354 454.652 390.799C455.008 390.932 455.355 391.075 455.702 391.208C455.925 391.306 456.138 391.386 456.352 391.475C456.77 391.644 457.197 391.804 457.606 391.973C458.024 392.133 458.433 392.302 458.843 392.48C459.243 392.64 459.652 392.809 460.044 392.978C460.444 393.138 460.835 393.307 461.227 393.485C461.556 393.618 461.876 393.761 462.188 393.903C462.819 394.179 463.451 394.455 464.065 394.739C464.367 394.882 464.67 395.015 464.972 395.157L465.666 395.477C465.764 395.531 465.862 395.575 465.96 395.62C466.182 395.726 466.414 395.842 466.636 395.949C467.152 396.189 467.659 396.447 468.157 396.687C468.825 397.025 469.474 397.363 470.097 397.692C470.728 398.03 471.342 398.368 471.929 398.697C472.027 398.751 472.116 398.804 472.214 398.857C472.348 398.929 472.481 399.009 472.615 399.08C473.068 399.338 473.504 399.605 473.94 399.862C474.794 400.387 475.604 400.903 476.36 401.419C476.529 401.535 476.689 401.65 476.858 401.757C477.419 402.157 477.952 402.549 478.451 402.949C478.451 402.958 478.451 402.958 478.46 402.958C478.629 403.082 478.789 403.216 478.949 403.34C479.082 403.465 479.225 403.571 479.358 403.696C479.821 404.096 480.248 404.479 480.639 404.87C480.77 404.991 480.895 405.119 481.013 405.253C481.065 405.295 481.112 405.343 481.155 405.395C481.333 405.573 481.493 405.751 481.645 405.929C481.668 405.953 481.689 405.98 481.707 406.009C481.92 406.258 482.116 406.507 482.303 406.756C482.392 406.88 482.49 407.005 482.57 407.129C482.677 407.281 482.783 407.441 482.872 407.592C482.952 407.716 483.023 407.85 483.095 407.974C483.283 408.295 483.444 408.631 483.575 408.979C483.675 409.215 483.755 409.459 483.815 409.709C483.883 409.945 483.933 410.186 483.967 410.429Z" fill="#2F2E41"/>
<path opacity="0.2" d="M483.967 410.429C483.958 411.986 483.94 414.165 483.869 416.86C483.86 417.234 483.842 417.616 483.833 418.007C483.744 421.788 483.611 426.457 483.424 431.732C483.415 432.052 483.406 432.363 483.388 432.684C483.139 439.123 482.748 446.621 482.072 458.496C480.817 480.43 478.629 461.511 476.431 469.205C470.328 465.451 463.638 461.52 456.485 457.482C455.195 456.752 453.893 456.02 452.579 455.285C438.274 447.306 422.296 438.945 405.614 430.665C404.956 430.335 404.289 430.006 403.631 429.686C365.42 410.803 323.713 392.436 289.923 380.179C283.402 377.813 277.175 375.678 271.321 373.801C258.99 369.861 248.332 367.104 240.129 365.912C231.589 364.667 225.69 365.111 223.306 367.682C223.217 365.867 223.125 364.13 223.03 362.47C222.995 361.918 222.959 361.376 222.923 360.842C222.978 360.695 223.05 360.556 223.119 360.415C223.129 360.394 223.136 360.373 223.146 360.353C223.163 360.307 223.184 360.262 223.208 360.219C223.234 360.164 223.264 360.111 223.297 360.059C223.326 359.996 223.362 359.936 223.404 359.881C223.484 359.757 223.573 359.623 223.671 359.499C223.743 359.405 223.82 359.316 223.902 359.232C223.929 359.189 223.962 359.15 224 359.116C224.035 359.081 224.071 359.036 224.116 358.992C224.135 358.964 224.159 358.94 224.187 358.921C224.257 358.84 224.334 358.765 224.418 358.698C224.735 358.406 225.074 358.139 225.432 357.898C225.557 357.818 225.69 357.738 225.815 357.649C226.711 357.112 227.655 356.66 228.635 356.297C228.973 356.172 229.311 356.057 229.676 355.932C229.809 355.896 229.934 355.852 230.067 355.808C230.263 355.745 230.459 355.683 230.663 355.639C231.678 355.336 232.772 355.078 233.955 354.838C234.311 354.767 234.685 354.696 235.058 354.633C235.361 354.58 235.672 354.527 235.984 354.473C238.626 354.055 241.624 353.744 244.934 353.539C245.245 353.522 245.556 353.504 245.868 353.486C246.232 353.468 246.597 353.45 246.971 353.433C247.282 353.415 247.602 353.406 247.923 353.397C248.234 353.379 248.554 353.37 248.884 353.362C249.782 353.335 250.707 353.308 251.65 353.29C254.337 353.246 257.166 353.264 260.138 353.326C261.517 353.353 262.922 353.397 264.364 353.459C264.453 353.459 264.55 353.468 264.639 353.468C265.894 353.504 267.166 353.566 268.456 353.628C269.364 353.673 270.28 353.717 271.196 353.771C272.059 353.824 272.931 353.877 273.812 353.94C274.497 353.975 275.182 354.029 275.876 354.073C276.463 354.118 277.05 354.162 277.637 354.198C278.34 354.251 279.043 354.304 279.755 354.358C280.733 354.438 281.712 354.518 282.708 354.598C283.696 354.687 284.701 354.776 285.706 354.865C286.712 354.954 287.726 355.051 288.74 355.149C288.847 355.158 288.945 355.167 289.043 355.176C289.968 355.274 290.893 355.363 291.827 355.461C297.005 355.985 302.334 356.599 307.814 357.302C311.088 357.72 314.404 358.168 317.761 358.645C322.859 359.365 328.036 360.148 333.25 360.984C338.472 361.829 343.724 362.722 349.006 363.661C350.34 363.902 351.675 364.142 353.018 364.391C354.655 364.693 356.292 365.002 357.929 365.316C358.961 365.512 359.993 365.707 361.025 365.912C362.253 366.152 363.489 366.392 364.717 366.632C372.804 368.233 380.846 369.941 388.693 371.729C389.983 372.022 391.273 372.325 392.554 372.618C395.116 373.214 397.655 373.819 400.17 374.433C400.864 374.602 401.549 374.771 402.234 374.94C403.951 375.367 405.65 375.794 407.331 376.221V376.23C407.429 376.247 407.527 376.274 407.625 376.301C408.853 376.612 410.072 376.923 411.282 377.244C414.137 377.991 416.946 378.744 419.707 379.503C421.539 380.019 423.354 380.526 425.142 381.042C427.82 381.824 430.445 382.607 432.998 383.39C433.63 383.585 434.261 383.781 434.884 383.968C436.752 384.555 438.585 385.139 440.382 385.72C441.806 386.183 443.194 386.654 444.564 387.125C445.934 387.597 447.277 388.068 448.594 388.54C449.448 388.842 450.284 389.153 451.112 389.456C452.321 389.901 453.496 390.345 454.652 390.799C455.008 390.932 455.355 391.075 455.702 391.208C456.352 391.457 456.983 391.715 457.606 391.973C458.024 392.133 458.433 392.302 458.843 392.48C459.243 392.64 459.652 392.809 460.044 392.978C460.444 393.138 460.835 393.307 461.227 393.485C461.556 393.618 461.876 393.761 462.188 393.903C462.819 394.179 463.451 394.455 464.065 394.739C464.367 394.881 464.67 395.015 464.972 395.157L465.666 395.477C465.764 395.531 465.862 395.575 465.96 395.62C466.716 395.976 467.446 396.331 468.157 396.687C468.825 397.025 469.474 397.363 470.097 397.692C470.835 398.083 471.538 398.466 472.214 398.857C472.348 398.928 472.481 399.009 472.615 399.08C473.068 399.338 473.504 399.605 473.94 399.862C474.794 400.387 475.604 400.903 476.36 401.419C477.107 401.935 477.801 402.442 478.451 402.949C478.451 402.958 478.451 402.958 478.46 402.958C478.771 403.207 479.073 403.456 479.358 403.696C479.821 404.096 480.248 404.479 480.639 404.87C480.77 404.991 480.895 405.119 481.013 405.253C481.065 405.295 481.112 405.343 481.155 405.395C481.342 405.599 481.529 405.804 481.707 406.009C481.92 406.258 482.116 406.507 482.303 406.756C482.392 406.88 482.49 407.005 482.57 407.129C482.677 407.28 482.783 407.441 482.872 407.592C482.952 407.716 483.024 407.85 483.095 407.974C483.284 408.295 483.444 408.631 483.575 408.979C483.672 409.216 483.753 409.46 483.815 409.709C483.883 409.945 483.933 410.186 483.967 410.429Z" fill="black"/>
</g>
<defs>
<clipPath id="clip0_4_43">
<rect width="700" height="509" fill="white"/>
</clipPath>
</defs>
</svg>
