<svg width="700" height="506" viewBox="0 0 700 506" fill="none" xmlns="http://www.w3.org/2000/svg">
<g clip-path="url(#clip0_40_2)">
<path d="M698.988 502.119H1.01156C0.743278 502.119 0.485983 502.013 0.296278 501.823C0.106574 501.633 0 501.376 0 501.107C0 500.839 0.106574 500.581 0.296278 500.391C0.485983 500.202 0.743278 500.095 1.01156 500.095H698.988C699.257 500.095 699.514 500.202 699.704 500.391C699.893 500.581 700 500.839 700 501.107C700 501.376 699.893 501.633 699.704 501.823C699.514 502.013 699.257 502.119 698.988 502.119Z" fill="#CCCCCC"/>
<path d="M629.903 325.581H219.21C217.466 325.581 215.793 326.275 214.56 327.508C213.327 328.742 212.635 330.416 212.635 332.161C212.635 333.906 213.327 335.58 214.56 336.813C215.793 338.047 217.466 338.741 219.21 338.741H230.843V496.145C230.843 497.89 231.535 499.564 232.768 500.798C234.002 502.032 235.674 502.725 237.418 502.725C239.162 502.725 240.834 502.032 242.067 500.798C243.3 499.564 243.993 497.89 243.993 496.145L244.093 338.741H604.109V496.145C604.109 497.89 604.801 499.564 606.034 500.798C607.267 502.032 608.94 502.725 610.684 502.725C612.427 502.725 614.1 502.032 615.333 500.798C616.566 499.564 617.259 497.89 617.259 496.145V342.21L619.172 338.741H629.903C631.647 338.741 633.32 338.047 634.553 336.813C635.786 335.58 636.478 333.906 636.478 332.161C636.478 330.416 635.786 328.742 634.553 327.508C633.32 326.275 631.647 325.581 629.903 325.581Z" fill="#CCCCCC"/>
<path d="M446.902 329.025H322.498C320.089 329.022 317.78 328.063 316.076 326.359C314.373 324.654 313.415 322.343 313.412 319.933V251.394C313.415 248.984 314.373 246.673 316.076 244.969C317.78 243.264 320.089 242.305 322.498 242.303H446.902C449.31 242.305 451.62 243.264 453.323 244.969C455.026 246.673 455.984 248.984 455.987 251.394V319.933C455.984 322.343 455.026 324.654 453.323 326.359C451.62 328.063 449.31 329.022 446.902 329.025Z" fill="#3F3D56"/>
<path d="M446.901 249.3H322.499C321.944 249.301 321.412 249.522 321.019 249.915C320.627 250.308 320.406 250.84 320.405 251.395V319.935C320.406 320.49 320.627 321.022 321.019 321.415C321.412 321.808 321.944 322.029 322.499 322.03H446.901C447.456 322.029 447.988 321.808 448.38 321.415C448.773 321.022 448.993 320.49 448.995 319.935V251.395C448.993 250.84 448.773 250.308 448.38 249.915C447.988 249.522 447.456 249.301 446.901 249.3Z" fill="white"/>
<path d="M395.31 297.825C395.31 297.825 380.417 294.391 372.226 300.687C364.036 306.983 382.651 321.291 382.651 321.291L395.31 297.825Z" fill="#2F2E41"/>
<path d="M385.429 291.337C393.187 291.337 399.477 285.043 399.477 277.28C399.477 269.516 393.187 263.223 385.429 263.223C377.671 263.223 371.381 269.516 371.381 277.28C371.381 285.043 377.671 291.337 385.429 291.337Z" fill="#A0616A"/>
<path d="M374.566 257.547C375.503 255.956 376.861 254.655 378.49 253.787C380.119 252.92 381.956 252.52 383.798 252.632C385.725 252.873 387.605 253.4 389.378 254.194L398.561 257.779C400.937 258.707 403.54 259.843 404.571 262.177C405.528 264.344 404.814 266.846 404.091 269.102L400.655 279.825C400.275 277.398 399.622 275.022 398.708 272.742C397.78 270.446 396.103 268.533 393.949 267.312C391.564 266.088 388.753 266.113 386.075 266.242C382.282 266.425 378.159 266.908 375.464 269.584C374.034 271.105 373.064 273 372.668 275.05C372.278 277.089 372.081 279.16 372.081 281.236C370.526 278.561 369.216 275.751 368.167 272.839C367.304 270.671 366.813 268.374 366.713 266.042C366.623 263.691 367.402 261.389 368.902 259.577C369.664 258.692 370.658 258.037 371.771 257.686C372.885 257.335 374.074 257.303 375.205 257.592L374.566 257.547Z" fill="#2F2E41"/>
<path d="M418.971 310.015C418.839 309.54 418.57 309.115 418.198 308.792C417.825 308.47 417.366 308.265 416.877 308.203C416.845 308.18 416.811 308.16 416.776 308.142L395.805 296.381C395.206 296.046 394.501 295.954 393.836 296.125C393.172 296.296 392.598 296.717 392.236 297.301L386.501 306.593L377.862 297.949L377.724 297.811C377.281 297.368 376.696 297.094 376.071 297.04C375.446 296.985 374.823 297.152 374.309 297.512L357.074 309.59C357.044 309.59 357.013 309.6 356.983 309.6C356.158 309.737 355.405 310.152 354.848 310.776C354.29 311.4 353.962 312.196 353.918 313.031L353.473 322.03H422.299L418.971 310.015Z" fill="#7510F6"/>
<path d="M457.385 320.632H444.106C444.106 320.261 443.959 319.906 443.697 319.643C443.434 319.381 443.079 319.234 442.708 319.234H438.515C438.144 319.234 437.789 319.381 437.526 319.643C437.264 319.906 437.117 320.261 437.117 320.632H432.924C432.924 320.261 432.776 319.906 432.514 319.643C432.252 319.381 431.897 319.234 431.526 319.234H427.332C426.962 319.234 426.606 319.381 426.344 319.643C426.082 319.906 425.935 320.261 425.935 320.632H421.741C421.741 320.261 421.594 319.906 421.332 319.643C421.07 319.381 420.714 319.234 420.343 319.234H416.15C415.779 319.234 415.424 319.381 415.162 319.643C414.9 319.906 414.752 320.261 414.752 320.632H410.559C410.559 320.261 410.412 319.906 410.15 319.643C409.887 319.381 409.532 319.234 409.161 319.234H404.968C404.597 319.234 404.242 319.381 403.979 319.643C403.717 319.906 403.57 320.261 403.57 320.632H399.377C399.377 320.261 399.229 319.906 398.967 319.643C398.705 319.381 398.35 319.234 397.979 319.234H393.785C393.415 319.234 393.059 319.381 392.797 319.643C392.535 319.906 392.388 320.261 392.388 320.632H388.194C388.194 320.261 388.047 319.906 387.785 319.643C387.523 319.381 387.167 319.234 386.796 319.234H382.603C382.232 319.234 381.877 319.381 381.615 319.643C381.353 319.906 381.205 320.261 381.205 320.632H377.012C377.012 320.261 376.865 319.906 376.602 319.643C376.34 319.381 375.985 319.234 375.614 319.234H371.421C371.05 319.234 370.694 319.381 370.432 319.643C370.17 319.906 370.023 320.261 370.023 320.632H365.83C365.83 320.261 365.682 319.906 365.42 319.643C365.158 319.381 364.802 319.234 364.432 319.234H360.238C359.868 319.234 359.512 319.381 359.25 319.643C358.988 319.906 358.841 320.261 358.841 320.632H354.647C354.647 320.261 354.5 319.906 354.238 319.643C353.976 319.381 353.62 319.234 353.249 319.234H349.056C348.685 319.234 348.33 319.381 348.068 319.643C347.806 319.906 347.658 320.261 347.658 320.632H343.465C343.465 320.261 343.318 319.906 343.055 319.643C342.793 319.381 342.438 319.234 342.067 319.234H337.874C337.503 319.234 337.147 319.381 336.885 319.643C336.623 319.906 336.476 320.261 336.476 320.632H332.283C332.283 320.261 332.135 319.906 331.873 319.643C331.611 319.381 331.256 319.234 330.885 319.234H326.691C326.321 319.234 325.965 319.381 325.703 319.643C325.441 319.906 325.294 320.261 325.294 320.632H312.015C310.904 320.634 309.839 321.077 309.054 321.864C308.269 322.65 307.828 323.717 307.828 324.829C307.828 325.94 308.269 327.007 309.054 327.793C309.839 328.58 310.904 329.023 312.015 329.025H457.385C458.497 329.025 459.564 328.583 460.35 327.796C461.137 327.009 461.578 325.941 461.578 324.829C461.578 323.716 461.137 322.648 460.35 321.861C459.564 321.074 458.497 320.632 457.385 320.632Z" fill="#3F3D56"/>
<path d="M290.398 296.263V324.126H220.638C218.769 324.191 216.906 323.879 215.161 323.208C213.415 322.538 211.822 321.522 210.476 320.222C209.131 318.922 208.061 317.364 207.331 315.641C206.6 313.919 206.224 312.066 206.224 310.195C206.224 308.324 206.6 306.471 207.331 304.749C208.061 303.026 209.131 301.468 210.476 300.168C211.822 298.868 213.415 297.852 215.161 297.181C216.906 296.511 218.769 296.198 220.638 296.263H290.398Z" fill="#F2F2F2"/>
<path d="M292.111 323.912C292.111 324.196 291.998 324.469 291.798 324.67C291.597 324.871 291.324 324.984 291.04 324.984H219.396C215.505 324.984 211.773 323.437 209.021 320.684C206.27 317.93 204.724 314.196 204.724 310.302C204.724 306.408 206.27 302.674 209.021 299.921C211.773 297.167 215.505 295.621 219.396 295.621H291.04C291.324 295.621 291.597 295.733 291.798 295.934C291.999 296.135 292.111 296.408 292.111 296.692C292.111 296.976 291.999 297.249 291.798 297.45C291.597 297.651 291.324 297.764 291.04 297.764H219.396C216.075 297.767 212.891 299.089 210.543 301.44C208.196 303.791 206.877 306.979 206.877 310.302C206.877 313.626 208.196 316.813 210.543 319.164C212.891 321.515 216.075 322.837 219.396 322.84H291.04C291.324 322.841 291.597 322.953 291.798 323.154C291.998 323.355 292.111 323.628 292.111 323.912Z" fill="#7510F6"/>
<path d="M290.398 302.693H215.433C215.405 302.694 215.377 302.688 215.351 302.677C215.325 302.667 215.301 302.651 215.281 302.631C215.261 302.611 215.245 302.587 215.234 302.561C215.223 302.535 215.218 302.507 215.218 302.479C215.218 302.451 215.223 302.423 215.234 302.397C215.245 302.371 215.261 302.347 215.281 302.327C215.301 302.307 215.325 302.291 215.351 302.281C215.377 302.27 215.405 302.264 215.433 302.265H290.398C290.454 302.265 290.509 302.288 290.548 302.328C290.588 302.368 290.611 302.422 290.611 302.479C290.611 302.536 290.588 302.59 290.548 302.63C290.509 302.67 290.454 302.693 290.398 302.693Z" fill="#CCCCCC"/>
<path d="M290.398 307.837H215.433C215.405 307.838 215.377 307.832 215.351 307.821C215.325 307.811 215.301 307.795 215.281 307.775C215.261 307.755 215.245 307.731 215.234 307.705C215.223 307.679 215.218 307.651 215.218 307.623C215.218 307.595 215.223 307.567 215.234 307.541C215.245 307.515 215.261 307.491 215.281 307.471C215.301 307.451 215.325 307.435 215.351 307.425C215.377 307.414 215.405 307.408 215.433 307.409H290.398C290.454 307.409 290.509 307.432 290.548 307.472C290.588 307.512 290.611 307.566 290.611 307.623C290.611 307.68 290.588 307.734 290.548 307.774C290.509 307.814 290.454 307.837 290.398 307.837Z" fill="#CCCCCC"/>
<path d="M290.398 312.981H215.433C215.405 312.981 215.377 312.976 215.351 312.965C215.325 312.955 215.301 312.939 215.281 312.919C215.261 312.899 215.245 312.875 215.234 312.849C215.223 312.823 215.218 312.795 215.218 312.767C215.218 312.739 215.223 312.711 215.234 312.685C215.245 312.658 215.261 312.635 215.281 312.615C215.301 312.595 215.325 312.579 215.351 312.568C215.377 312.558 215.405 312.552 215.433 312.553H290.398C290.454 312.553 290.509 312.576 290.548 312.616C290.588 312.656 290.611 312.71 290.611 312.767C290.611 312.823 290.588 312.878 290.548 312.918C290.509 312.958 290.454 312.981 290.398 312.981Z" fill="#CCCCCC"/>
<path d="M290.398 318.125H215.433C215.405 318.125 215.377 318.12 215.351 318.109C215.325 318.098 215.301 318.083 215.281 318.063C215.261 318.043 215.245 318.019 215.234 317.993C215.223 317.967 215.218 317.939 215.218 317.911C215.218 317.882 215.223 317.855 215.234 317.828C215.245 317.802 215.261 317.779 215.281 317.759C215.301 317.739 215.325 317.723 215.351 317.712C215.377 317.702 215.405 317.696 215.433 317.696H290.398C290.454 317.697 290.509 317.72 290.548 317.76C290.588 317.8 290.611 317.854 290.611 317.911C290.611 317.967 290.588 318.022 290.548 318.062C290.509 318.102 290.454 318.125 290.398 318.125Z" fill="#CCCCCC"/>
<path d="M277.248 266.908V294.771H207.488C205.619 294.836 203.756 294.524 202.01 293.853C200.264 293.182 198.671 292.167 197.326 290.867C195.981 289.567 194.911 288.009 194.18 286.286C193.45 284.563 193.073 282.711 193.073 280.84C193.073 278.968 193.45 277.116 194.18 275.393C194.911 273.671 195.981 272.113 197.326 270.813C198.671 269.513 200.264 268.497 202.01 267.826C203.756 267.155 205.619 266.843 207.488 266.908H277.248Z" fill="#F2F2F2"/>
<path d="M278.961 294.557C278.961 294.841 278.848 295.114 278.647 295.314C278.447 295.515 278.174 295.628 277.89 295.628H206.246C204.319 295.628 202.411 295.249 200.631 294.511C198.851 293.773 197.234 292.692 195.871 291.328C194.509 289.965 193.428 288.347 192.691 286.565C191.953 284.784 191.574 282.875 191.574 280.947C191.574 279.019 191.953 277.11 192.691 275.328C193.428 273.547 194.509 271.929 195.871 270.565C197.234 269.202 198.851 268.121 200.631 267.383C202.411 266.645 204.319 266.265 206.246 266.265H277.89C278.174 266.265 278.447 266.378 278.647 266.579C278.848 266.78 278.961 267.053 278.961 267.337C278.961 267.621 278.848 267.894 278.647 268.095C278.447 268.296 278.174 268.409 277.89 268.409H206.246C202.924 268.412 199.74 269.734 197.393 272.085C195.046 274.436 193.727 277.623 193.727 280.947C193.727 284.27 195.046 287.458 197.393 289.809C199.74 292.16 202.924 293.482 206.246 293.485H277.89C278.174 293.485 278.446 293.598 278.647 293.799C278.848 294 278.961 294.273 278.961 294.557Z" fill="#3F3D56"/>
<path d="M277.248 273.338H202.283C202.255 273.338 202.227 273.333 202.201 273.322C202.175 273.312 202.151 273.296 202.131 273.276C202.111 273.256 202.095 273.232 202.084 273.206C202.073 273.18 202.068 273.152 202.068 273.124C202.068 273.096 202.073 273.068 202.084 273.041C202.095 273.015 202.111 272.992 202.131 272.972C202.151 272.952 202.175 272.936 202.201 272.925C202.227 272.915 202.255 272.909 202.283 272.909H277.248C277.304 272.91 277.358 272.933 277.398 272.973C277.438 273.013 277.46 273.067 277.46 273.124C277.46 273.18 277.438 273.235 277.398 273.275C277.358 273.315 277.304 273.338 277.248 273.338Z" fill="#CCCCCC"/>
<path d="M277.248 278.482H202.283C202.255 278.482 202.227 278.477 202.201 278.466C202.175 278.455 202.151 278.44 202.131 278.42C202.111 278.4 202.095 278.376 202.084 278.35C202.073 278.324 202.068 278.296 202.068 278.268C202.068 278.239 202.073 278.211 202.084 278.185C202.095 278.159 202.111 278.136 202.131 278.116C202.151 278.096 202.175 278.08 202.201 278.069C202.227 278.059 202.255 278.053 202.283 278.053H277.248C277.304 278.054 277.358 278.077 277.398 278.117C277.438 278.157 277.46 278.211 277.46 278.268C277.46 278.324 277.438 278.379 277.398 278.419C277.358 278.459 277.304 278.482 277.248 278.482Z" fill="#CCCCCC"/>
<path d="M277.248 283.626H202.283C202.255 283.626 202.227 283.621 202.201 283.61C202.175 283.599 202.151 283.584 202.131 283.564C202.111 283.544 202.095 283.52 202.084 283.494C202.073 283.468 202.068 283.44 202.068 283.412C202.068 283.383 202.073 283.355 202.084 283.329C202.095 283.303 202.111 283.28 202.131 283.26C202.151 283.24 202.175 283.224 202.201 283.213C202.227 283.203 202.255 283.197 202.283 283.197H277.248C277.304 283.198 277.358 283.221 277.398 283.261C277.438 283.301 277.46 283.355 277.46 283.412C277.46 283.468 277.438 283.523 277.398 283.563C277.358 283.603 277.304 283.626 277.248 283.626Z" fill="#CCCCCC"/>
<path d="M277.248 288.77H202.283C202.255 288.77 202.227 288.765 202.201 288.754C202.175 288.743 202.151 288.728 202.131 288.708C202.111 288.688 202.095 288.664 202.084 288.638C202.073 288.612 202.068 288.584 202.068 288.556C202.068 288.527 202.073 288.499 202.084 288.473C202.095 288.447 202.111 288.423 202.131 288.403C202.151 288.384 202.175 288.368 202.201 288.357C202.227 288.346 202.255 288.341 202.283 288.341H277.248C277.304 288.342 277.358 288.364 277.398 288.404C277.438 288.445 277.46 288.499 277.46 288.556C277.46 288.612 277.438 288.666 277.398 288.707C277.358 288.747 277.304 288.769 277.248 288.77Z" fill="#CCCCCC"/>
<path d="M358.399 423.164V398.87C358.399 397.796 357.973 396.766 357.214 396.007C356.455 395.248 355.426 394.821 354.353 394.821H262.301C261.228 394.821 260.199 395.248 259.44 396.007C258.681 396.766 258.255 397.796 258.255 398.87V423.164H358.399Z" fill="#CCCCCC"/>
<path d="M358.399 432.274H258.255V463.654H358.399V432.274Z" fill="#CCCCCC"/>
<path d="M258.255 472.764V497.058C258.255 498.132 258.681 499.162 259.44 499.921C260.199 500.681 261.228 501.107 262.301 501.107H354.353C355.426 501.107 356.455 500.681 357.214 499.921C357.973 499.162 358.399 498.132 358.399 497.058V472.764H258.255Z" fill="#CCCCCC"/>
<path d="M307.821 413.041C309.497 413.041 310.856 411.682 310.856 410.005C310.856 408.328 309.497 406.968 307.821 406.968C306.145 406.968 304.786 408.328 304.786 410.005C304.786 411.682 306.145 413.041 307.821 413.041Z" fill="white"/>
<path d="M307.821 453.531C309.497 453.531 310.856 452.172 310.856 450.495C310.856 448.818 309.497 447.458 307.821 447.458C306.145 447.458 304.786 448.818 304.786 450.495C304.786 452.172 306.145 453.531 307.821 453.531Z" fill="white"/>
<path d="M307.984 493.164C309.66 493.164 311.018 491.804 311.018 490.127C311.018 488.45 309.66 487.091 307.984 487.091C306.308 487.091 304.949 488.45 304.949 490.127C304.949 491.804 306.308 493.164 307.984 493.164Z" fill="white"/>
<path d="M347.045 367.121V394.984H277.286C275.417 395.049 273.554 394.737 271.808 394.066C270.062 393.395 268.469 392.379 267.124 391.079C265.779 389.779 264.709 388.221 263.978 386.499C263.248 384.776 262.871 382.924 262.871 381.052C262.871 379.181 263.248 377.329 263.978 375.606C264.709 373.883 265.779 372.326 267.124 371.026C268.469 369.725 270.062 368.71 271.808 368.039C273.554 367.368 275.417 367.056 277.286 367.121H347.045Z" fill="#F2F2F2"/>
<path d="M348.759 394.769C348.759 395.054 348.646 395.326 348.445 395.527C348.244 395.728 347.972 395.841 347.688 395.841H276.043C274.116 395.843 272.206 395.464 270.425 394.727C268.644 393.99 267.025 392.909 265.661 391.545C264.297 390.182 263.216 388.563 262.477 386.781C261.739 384.999 261.359 383.089 261.359 381.16C261.359 379.231 261.739 377.32 262.477 375.538C263.216 373.756 264.297 372.137 265.661 370.774C267.025 369.41 268.644 368.329 270.425 367.592C272.206 366.855 274.116 366.476 276.043 366.478H347.688C347.972 366.478 348.244 366.591 348.445 366.792C348.646 366.993 348.759 367.265 348.759 367.55C348.759 367.834 348.646 368.106 348.445 368.307C348.244 368.508 347.972 368.621 347.688 368.621H276.043C272.722 368.624 269.538 369.947 267.191 372.298C264.843 374.649 263.525 377.836 263.525 381.16C263.525 384.483 264.843 387.67 267.191 390.021C269.538 392.373 272.722 393.695 276.043 393.698H347.688C347.972 393.698 348.244 393.811 348.445 394.012C348.646 394.213 348.759 394.485 348.759 394.769Z" fill="#3F3D56"/>
<path d="M347.045 373.551H272.081C272.053 373.551 272.025 373.546 271.998 373.535C271.972 373.524 271.949 373.509 271.928 373.489C271.908 373.469 271.893 373.445 271.882 373.419C271.871 373.393 271.865 373.365 271.865 373.336C271.865 373.308 271.871 373.28 271.882 373.254C271.893 373.228 271.908 373.204 271.928 373.184C271.949 373.165 271.972 373.149 271.998 373.138C272.025 373.127 272.053 373.122 272.081 373.122H347.045C347.102 373.123 347.156 373.145 347.196 373.185C347.236 373.226 347.258 373.28 347.258 373.336C347.258 373.393 347.236 373.447 347.196 373.488C347.156 373.528 347.102 373.55 347.045 373.551Z" fill="#CCCCCC"/>
<path d="M347.045 378.695H272.081C272.053 378.695 272.025 378.69 271.998 378.679C271.972 378.668 271.949 378.652 271.928 378.633C271.908 378.613 271.893 378.589 271.882 378.563C271.871 378.537 271.865 378.509 271.865 378.48C271.865 378.452 271.871 378.424 271.882 378.398C271.893 378.372 271.908 378.348 271.928 378.328C271.949 378.308 271.972 378.293 271.998 378.282C272.025 378.271 272.053 378.266 272.081 378.266H347.045C347.102 378.267 347.156 378.289 347.196 378.329C347.236 378.37 347.258 378.424 347.258 378.48C347.258 378.537 347.236 378.591 347.196 378.631C347.156 378.672 347.102 378.694 347.045 378.695Z" fill="#CCCCCC"/>
<path d="M347.045 383.839H272.081C272.053 383.839 272.025 383.833 271.998 383.823C271.972 383.812 271.949 383.796 271.928 383.776C271.908 383.756 271.893 383.733 271.882 383.707C271.871 383.681 271.865 383.653 271.865 383.624C271.865 383.596 271.871 383.568 271.882 383.542C271.893 383.516 271.908 383.492 271.928 383.472C271.949 383.452 271.972 383.437 271.998 383.426C272.025 383.415 272.053 383.41 272.081 383.41H347.045C347.102 383.41 347.156 383.433 347.196 383.473C347.236 383.513 347.258 383.568 347.258 383.624C347.258 383.681 347.236 383.735 347.196 383.775C347.156 383.816 347.102 383.838 347.045 383.839Z" fill="#CCCCCC"/>
<path d="M347.045 388.983H272.081C272.053 388.983 272.025 388.977 271.998 388.967C271.972 388.956 271.949 388.94 271.928 388.92C271.908 388.9 271.893 388.877 271.882 388.851C271.871 388.824 271.865 388.797 271.865 388.768C271.865 388.74 271.871 388.712 271.882 388.686C271.893 388.66 271.908 388.636 271.928 388.616C271.949 388.596 271.972 388.58 271.998 388.57C272.025 388.559 272.053 388.554 272.081 388.554H347.045C347.102 388.554 347.156 388.577 347.196 388.617C347.236 388.657 347.258 388.712 347.258 388.768C347.258 388.825 347.236 388.879 347.196 388.919C347.156 388.959 347.102 388.982 347.045 388.983Z" fill="#CCCCCC"/>
<path d="M253.002 185.263V7.61357C253.004 5.59503 253.806 3.65983 255.233 2.2325C256.659 0.80518 258.593 0.00229221 260.61 -3.8147e-06H400.943C402.96 0.00230558 404.894 0.805198 406.32 2.23252C407.746 3.65984 408.549 5.59504 408.551 7.61357V185.263C408.549 187.282 407.746 189.217 406.32 190.644C404.894 192.072 402.96 192.875 400.943 192.877H260.61C258.593 192.875 256.659 192.072 255.233 190.644C253.806 189.217 253.004 187.282 253.002 185.263ZM260.61 1.6919C259.041 1.69366 257.537 2.31812 256.428 3.42826C255.318 4.53841 254.694 6.04359 254.693 7.61357V185.263C254.694 186.833 255.318 188.339 256.428 189.449C257.537 190.559 259.041 191.183 260.61 191.185H400.943C402.511 191.183 404.016 190.559 405.125 189.449C406.234 188.339 406.858 186.833 406.86 185.263V7.61357C406.858 6.04359 406.234 4.53841 405.125 3.42826C404.016 2.31812 402.511 1.69366 400.943 1.6919H260.61Z" fill="#E6E6E6"/>
<path d="M338.646 81.585V45.1079C338.647 44.0986 339.048 43.131 339.761 42.4173C340.474 41.7037 341.441 41.3022 342.45 41.3011H373.34C374.349 41.3022 375.315 41.7037 376.029 42.4173C376.742 43.131 377.143 44.0986 377.144 45.1079V81.585C377.143 82.5943 376.742 83.5619 376.029 84.2756C375.315 84.9892 374.349 85.3907 373.34 85.3918H342.45C341.441 85.3907 340.474 84.9892 339.761 84.2756C339.048 83.5619 338.647 82.5943 338.646 81.585Z" fill="#7510F6"/>
<path d="M278.624 98.504V62.027C278.625 61.0177 279.026 60.0501 279.739 59.3364C280.453 58.6227 281.42 58.2213 282.428 58.2202H313.318C314.327 58.2213 315.294 58.6227 316.007 59.3364C316.72 60.0501 317.121 61.0177 317.123 62.027V98.5041C317.121 99.5133 316.72 100.481 316.007 101.195C315.294 101.908 314.327 102.31 313.318 102.311H282.428C281.42 102.31 280.453 101.908 279.739 101.195C279.026 100.481 278.625 99.5133 278.624 98.504Z" fill="#CCCCCC"/>
<path d="M326.81 150.107V113.63C326.812 112.621 327.213 111.653 327.926 110.939C328.639 110.226 329.606 109.824 330.615 109.823H361.505C362.513 109.824 363.48 110.226 364.193 110.939C364.907 111.653 365.308 112.621 365.309 113.63V150.107C365.308 151.116 364.907 152.084 364.193 152.798C363.48 153.511 362.513 153.913 361.505 153.914H330.615C329.606 153.913 328.639 153.511 327.926 152.798C327.213 152.084 326.812 151.116 326.81 150.107Z" fill="#FF6584"/>
<path d="M511.408 316.878H479.624C479.323 316.878 479.025 316.947 478.755 317.08L470.733 321.099C470.469 321.211 470.244 321.399 470.085 321.638C469.927 321.877 469.843 322.158 469.843 322.445C469.843 322.732 469.927 323.013 470.085 323.252C470.244 323.492 470.469 323.679 470.733 323.791L478.755 327.81C479.025 327.943 479.323 328.013 479.624 328.013H511.408C511.846 328.038 512.276 327.89 512.605 327.6C512.935 327.31 513.137 326.902 513.168 326.464V318.427C513.137 317.989 512.935 317.58 512.605 317.291C512.276 317.001 511.846 316.852 511.408 316.878Z" fill="#3F3D56"/>
<path d="M513.168 318.427V326.464C513.137 326.902 512.935 327.31 512.605 327.6C512.276 327.89 511.846 328.038 511.408 328.012H505.075V316.878H511.408C511.846 316.852 512.276 317.001 512.605 317.291C512.935 317.58 513.137 317.989 513.168 318.427Z" fill="#7510F6"/>
<path d="M511.168 256.75C512.608 256.128 514.163 255.818 515.73 255.839C517.298 255.861 518.844 256.214 520.266 256.874C521.688 257.535 522.955 258.489 523.983 259.674C525.011 260.859 525.777 262.247 526.231 263.749C526.372 264.225 526.481 264.711 526.555 265.202L571.001 287.257L581.287 280.436L594.085 295.179L578.379 307.944C576.491 309.467 574.162 310.34 571.738 310.433C569.314 310.527 566.925 309.836 564.924 308.463L519.83 277.257C519.494 277.4 519.152 277.525 518.803 277.632C517.302 278.086 515.722 278.218 514.167 278.019C512.611 277.819 511.116 277.293 509.778 276.475C508.44 275.657 507.289 274.565 506.402 273.271C505.515 271.977 504.912 270.51 504.631 268.966C504.547 268.518 504.493 268.065 504.466 267.61C504.341 265.332 504.916 263.07 506.115 261.128C507.313 259.186 509.076 257.658 511.168 256.75Z" fill="#FFB8B8"/>
<path d="M603.741 392.542H555.176C555.176 393.939 505.124 395.073 505.124 395.073C504.339 395.664 503.623 396.344 502.99 397.097C501.089 399.366 500.05 402.234 500.056 405.195V407.22C500.057 410.575 501.39 413.793 503.761 416.165C506.132 418.538 509.347 419.871 512.701 419.873H603.741C607.094 419.87 610.308 418.536 612.679 416.163C615.049 413.791 616.383 410.574 616.386 407.22V405.195C616.381 401.841 615.047 398.625 612.677 396.253C610.307 393.881 607.093 392.547 603.741 392.542Z" fill="#3F3D56"/>
<path d="M550.914 504.399H564.064V419.37H550.914V504.399Z" fill="#3F3D56"/>
<path d="M513.486 503.937C513.486 505.359 533.413 504.487 557.995 504.487C582.576 504.487 602.503 505.359 602.503 503.937C602.503 502.515 582.576 491.24 557.995 491.24C533.413 491.24 513.486 502.515 513.486 503.937Z" fill="#3F3D56"/>
<path d="M525.357 493.971L512.956 493.97L507.056 461.783L525.359 461.784L525.357 493.971Z" fill="#FFB8B8"/>
<path d="M528.52 506L488.532 505.999V505.492C488.532 503.447 488.935 501.422 489.717 499.532C490.499 497.643 491.646 495.926 493.091 494.479C494.536 493.033 496.252 491.886 498.141 491.103C500.029 490.32 502.053 489.918 504.097 489.918H504.098L528.521 489.919L528.52 506Z" fill="#2F2E41"/>
<path d="M506.809 474.011L482.085 418.532C480.021 413.856 479.793 408.574 481.446 403.737C483.099 398.9 486.512 394.864 491.006 392.432L544.632 363.656L569.103 361.573L591.676 359.52L591.838 359.796C592.047 360.148 596.9 368.537 593.619 377.735C591.131 384.712 584.658 390.161 574.381 393.933C550.392 402.735 522.681 410.257 511.88 413.082C511.403 413.205 510.956 413.426 510.571 413.733C510.185 414.04 509.869 414.426 509.643 414.864C509.416 415.297 509.282 415.772 509.248 416.26C509.213 416.747 509.28 417.237 509.445 417.697L532.414 469.336C532.654 469.991 532.74 470.693 532.666 471.386C532.592 472.08 532.36 472.747 531.988 473.337C531.616 473.927 531.113 474.423 530.519 474.787C529.924 475.152 529.254 475.375 528.56 475.44L511.398 476.69C511.252 476.704 511.107 476.711 510.962 476.711C510.083 476.711 509.223 476.455 508.486 475.976C507.749 475.497 507.166 474.815 506.809 474.011Z" fill="#2F2E41"/>
<path d="M531.426 493.971L519.026 493.97L513.125 461.783L531.428 461.784L531.426 493.971Z" fill="#FFB8B8"/>
<path d="M534.589 506L494.602 505.999V505.492C494.602 503.447 495.004 501.422 495.787 499.532C496.569 497.643 497.715 495.926 499.16 494.479C500.606 493.033 502.322 491.886 504.21 491.103C506.098 490.32 508.122 489.918 510.166 489.918H510.167L534.59 489.919L534.589 506Z" fill="#2F2E41"/>
<path d="M513.89 477.048L489.166 421.569C487.102 416.893 486.874 411.61 488.527 406.774C490.18 401.937 493.593 397.901 498.087 395.469L551.713 366.693L576.184 364.61L598.757 362.557L598.919 362.833C599.127 363.185 603.981 371.573 600.7 380.771C598.212 387.748 591.739 393.198 581.461 396.969C557.473 405.771 529.761 413.294 518.961 416.119C518.483 416.241 518.037 416.463 517.652 416.77C517.266 417.077 516.95 417.462 516.724 417.901C516.497 418.333 516.363 418.809 516.329 419.296C516.294 419.784 516.361 420.273 516.526 420.734L539.495 472.373C539.734 473.028 539.821 473.729 539.747 474.423C539.673 475.117 539.441 475.784 539.069 476.374C538.697 476.963 538.194 477.46 537.6 477.824C537.005 478.189 536.335 478.412 535.641 478.476L518.478 479.727C518.333 479.741 518.188 479.748 518.043 479.748C517.164 479.747 516.304 479.492 515.567 479.013C514.83 478.534 514.247 477.851 513.89 477.048Z" fill="#2F2E41"/>
<path d="M501.567 307.566C491.178 293.738 482.965 278.399 477.213 262.084C476.88 261.108 476.904 260.046 477.28 259.086C477.656 258.125 478.361 257.33 479.268 256.841L514.82 237.779C515.395 237.468 516.033 237.293 516.686 237.266C517.339 237.24 517.99 237.363 518.588 237.626C519.198 237.891 519.739 238.292 520.171 238.798C520.602 239.303 520.912 239.901 521.078 240.545C525.216 256.267 532.994 270.793 543.783 282.949C544.227 283.444 544.553 284.034 544.735 284.673C544.917 285.313 544.951 285.986 544.834 286.64C544.721 287.285 544.463 287.895 544.079 288.424C543.695 288.954 543.196 289.388 542.619 289.695L507.067 308.758C506.158 309.243 505.106 309.39 504.099 309.171C503.091 308.953 502.194 308.384 501.567 307.566Z" fill="#CCCCCC"/>
<path d="M503.993 305.742C504.184 305.981 504.453 306.145 504.752 306.207C505.052 306.269 505.363 306.225 505.634 306.081L541.185 287.018C541.358 286.928 541.508 286.8 541.622 286.642C541.737 286.484 541.813 286.303 541.846 286.11C541.883 285.908 541.872 285.699 541.815 285.501C541.758 285.303 541.656 285.121 541.517 284.969C530.41 272.455 522.402 257.501 518.143 241.315C518.093 241.115 517.999 240.93 517.866 240.772C517.732 240.615 517.565 240.491 517.376 240.409C517.198 240.33 517.004 240.292 516.809 240.301C516.614 240.309 516.424 240.362 516.253 240.456L480.702 259.518C480.432 259.664 480.222 259.899 480.108 260.183C479.993 260.467 479.982 260.782 480.075 261.074C485.724 277.097 493.79 292.161 503.993 305.742Z" fill="white"/>
<path d="M619.675 302.481L591.832 313.069L585.034 294.174C584.131 291.664 584.144 288.917 585.07 286.416C585.996 283.916 587.775 281.823 590.094 280.509C592.439 279.179 595.182 278.732 597.828 279.249C600.474 279.766 602.848 281.212 604.521 283.327L619.675 302.481Z" fill="#7510F6"/>
<path d="M548.855 377.347C548.269 376.933 547.778 376.398 547.415 375.778C547.052 375.159 546.824 374.469 546.748 373.755C543.182 340.442 545.666 314.372 554.34 294.056C555.868 290.552 558.17 287.439 561.073 284.953C563.975 282.467 567.403 280.672 571.099 279.702L593.605 278.565L593.722 278.622C598.801 281.111 602.943 285.172 605.534 290.202C608.125 295.233 609.027 300.965 608.106 306.548C600.867 325.643 594.805 345.523 599.428 361.56C599.622 362.231 599.678 362.933 599.594 363.626C599.51 364.319 599.287 364.988 598.938 365.592C598.6 366.177 598.146 366.685 597.604 367.087C597.062 367.489 596.444 367.776 595.787 367.93L552.918 378.134C552.224 378.299 551.503 378.315 550.802 378.179C550.101 378.043 549.438 377.76 548.855 377.347Z" fill="#7510F6"/>
<path d="M586.094 270.153C599.816 270.153 610.939 259.022 610.939 245.292C610.939 231.561 599.816 220.43 586.094 220.43C572.373 220.43 561.249 231.561 561.249 245.292C561.249 259.022 572.373 270.153 586.094 270.153Z" fill="#FFB8B8"/>
<path d="M517.154 264.983L497.791 273.536C497.054 273.86 496.219 273.879 495.469 273.588C494.719 273.297 494.115 272.72 493.789 271.984L493.31 270.899C492.986 270.162 492.967 269.326 493.258 268.575C493.549 267.825 494.125 267.22 494.861 266.894L514.224 258.341C514.96 258.017 515.795 257.998 516.545 258.289C517.295 258.58 517.9 259.157 518.225 259.893L518.704 260.978C519.028 261.715 519.047 262.551 518.756 263.302C518.466 264.052 517.889 264.657 517.154 264.983Z" fill="#CCCCCC"/>
<path d="M524.235 278.142L504.872 286.695C504.135 287.02 503.301 287.038 502.55 286.747C501.8 286.456 501.196 285.88 500.87 285.143L500.391 284.058C500.067 283.321 500.048 282.485 500.339 281.735C500.63 280.984 501.206 280.379 501.942 280.053L521.305 271.5C522.041 271.176 522.876 271.157 523.626 271.448C524.376 271.739 524.981 272.316 525.306 273.052L525.785 274.138C526.11 274.875 526.128 275.71 525.838 276.461C525.547 277.212 524.97 277.816 524.235 278.142Z" fill="#CCCCCC"/>
<path d="M539.167 329.541L495.999 295.463C495.655 295.584 495.306 295.687 494.951 295.772C493.428 296.129 491.846 296.161 490.309 295.866C488.773 295.571 487.315 294.956 486.031 294.06C484.739 293.164 483.653 292.002 482.846 290.652C482.039 289.302 481.529 287.795 481.351 286.232C481.062 283.733 481.625 281.21 482.948 279.071C484.272 276.933 486.279 275.305 488.644 274.451C490.12 273.922 491.691 273.71 493.254 273.83C494.817 273.95 496.338 274.399 497.715 275.148C499.093 275.897 500.297 276.929 501.249 278.176C502.2 279.423 502.878 280.857 503.237 282.385C503.348 282.869 503.425 283.36 503.469 283.855L546.441 308.662L557.135 302.501L568.981 318.021L552.378 329.864C550.434 331.238 548.099 331.95 545.719 331.892C543.339 331.834 541.042 331.009 539.167 329.541Z" fill="#FFB8B8"/>
<path d="M574.249 322.854L549.619 306.094L561.194 289.689C562.731 287.51 564.988 285.946 567.566 285.271C570.144 284.597 572.878 284.857 575.283 286.004C577.717 287.165 579.655 289.158 580.749 291.624C581.842 294.089 582.019 296.865 581.246 299.449L574.249 322.854Z" fill="#7510F6"/>
<path d="M576.985 241.589C570.6 245.962 562.215 250.458 555.693 245.8C551.411 242.742 550.061 237.079 551.798 232.11C554.921 223.173 563.501 219.239 571.706 216.223C582.372 212.302 593.986 209.183 604.998 211.991C616.009 214.799 625.74 225.467 623.753 236.663C622.154 245.666 613.667 253.157 614.872 262.222C616.085 271.344 626.337 276.146 635.388 277.776C644.439 279.407 654.568 279.931 661.072 286.436C669.37 294.736 667.298 309.57 659.49 318.332C651.682 327.094 639.899 331.066 628.482 333.766C613.354 337.344 596.993 339.224 582.626 333.287C568.258 327.349 557.078 311.367 561.24 296.38C562.998 290.05 567.139 284.7 571.142 279.491C575.144 274.283 579.197 268.836 580.724 262.446C581.996 257.121 581.054 250.938 577.525 246.944C576.883 246.245 576.479 245.36 576.371 244.417C576.263 243.473 576.457 242.52 576.924 241.694L576.985 241.589Z" fill="#2F2E41"/>
<path d="M110.333 362.384C103.931 364.636 97.0573 365.2 90.3741 364.022C83.691 362.844 77.4236 359.963 72.1759 355.658C58.8111 344.433 54.6209 325.939 51.2114 308.816C47.8499 291.933 44.4885 275.05 41.127 258.167L62.2399 272.715C77.4231 283.176 92.9483 293.973 103.461 309.127C113.974 324.28 118.563 344.965 110.116 361.362" fill="#E6E6E6"/>
<path d="M108.528 423.704C110.665 408.128 112.863 392.352 111.364 376.609C110.032 362.628 105.77 348.972 97.0917 337.775C92.4854 331.843 86.8803 326.761 80.5286 322.756C78.8723 321.71 77.3478 324.337 78.9969 325.378C89.9873 332.329 98.4879 342.593 103.273 354.689C108.558 368.142 109.407 382.806 108.496 397.096C107.946 405.738 106.778 414.323 105.602 422.897C105.509 423.285 105.567 423.693 105.764 424.04C105.961 424.387 106.282 424.646 106.662 424.765C107.05 424.869 107.463 424.817 107.813 424.618C108.162 424.42 108.419 424.091 108.528 423.704H108.528Z" fill="#F2F2F2"/>
<path d="M87.9461 396.142C85.2004 400.318 81.4261 403.716 76.9871 406.009C72.5481 408.302 67.5939 409.412 62.6017 409.232C49.7719 408.623 39.076 399.662 29.4476 391.155L0.968872 365.994L19.8171 365.091C33.3716 364.442 47.2758 363.836 60.186 368.019C73.0963 372.202 85.0027 382.268 87.3634 395.641" fill="#E6E6E6"/>
<path d="M114.567 432.658C104.282 414.447 92.3522 394.207 71.0352 387.738C65.1081 385.945 58.8931 385.303 52.7249 385.846C50.7809 386.013 51.2663 389.012 53.2068 388.845C63.546 387.986 73.8652 390.718 82.4272 396.581C90.6663 402.193 97.0813 409.995 102.511 418.268C105.837 423.336 108.816 428.619 111.795 433.895C112.748 435.581 115.531 434.364 114.567 432.658Z" fill="#F2F2F2"/>
<path d="M131.047 451.827C130.701 447.809 129.259 443.963 126.879 440.708C124.499 437.453 121.273 434.914 117.55 433.367V422.839H99.9039V433.699C96.3649 435.322 93.3191 437.854 91.0772 441.039C88.8353 444.224 87.4774 447.946 87.1419 451.827L82.9924 500.095H135.197L131.047 451.827Z" fill="#F2F2F2"/>
</g>
<defs>
<clipPath id="clip0_40_2">
<rect width="700" height="506" fill="white"/>
</clipPath>
</defs>
</svg>
