<svg width="90" height="105" viewBox="0 0 90 105" fill="none" xmlns="http://www.w3.org/2000/svg">
<path d="M10.2745 85.0214V87.5051H6.90403V97.7483H3.80537V87.5051H0.4349V85.0214H10.2745ZM26.3443 87.632L23.6081 97.7483H20.1833L18.5886 91.1854L16.9396 97.7483H13.533L10.7786 87.632H13.8773L15.3088 94.8657L17.0121 87.632H20.292L22.0135 94.8294L23.4269 87.632H26.3443ZM29.0845 86.5805C28.5409 86.5805 28.0939 86.4234 27.7436 86.1092C27.4053 85.7828 27.2362 85.384 27.2362 84.9126C27.2362 84.4291 27.4053 84.0303 27.7436 83.7161C28.0939 83.3897 28.5409 83.2266 29.0845 83.2266C29.616 83.2266 30.0509 83.3897 30.3892 83.7161C30.7395 84.0303 30.9147 84.4291 30.9147 84.9126C30.9147 85.384 30.7395 85.7828 30.3892 86.1092C30.0509 86.4234 29.616 86.5805 29.0845 86.5805ZM30.6248 87.632V97.7483H27.5261V87.632H30.6248ZM39.0313 87.5233C40.2152 87.5233 41.1575 87.91 41.8581 88.6835C42.5709 89.445 42.9273 90.4965 42.9273 91.8381V97.7483H39.8467V92.2551C39.8467 91.5782 39.6716 91.0525 39.3212 90.6778C38.9709 90.3031 38.4998 90.1158 37.9078 90.1158C37.3159 90.1158 36.8447 90.3031 36.4944 90.6778C36.1441 91.0525 35.9689 91.5782 35.9689 92.2551V97.7483H32.8702V87.632H35.9689V88.9736C36.283 88.5264 36.7058 88.1759 37.2373 87.9221C37.7689 87.6562 38.3669 87.5233 39.0313 87.5233ZM44.4645 92.6902C44.4645 91.6386 44.6759 90.7201 45.0987 89.9345C45.5336 89.1489 46.1316 88.5446 46.8927 88.1215C47.6659 87.6985 48.5477 87.487 49.5383 87.487C50.8068 87.487 51.8638 87.8194 52.7095 88.4841C53.5672 89.1489 54.129 90.0856 54.3947 91.2942H51.0967C50.8189 90.5207 50.2813 90.1339 49.484 90.1339C48.9162 90.1339 48.4632 90.3575 48.1249 90.8047C47.7867 91.2398 47.6175 91.8683 47.6175 92.6902C47.6175 93.512 47.7867 94.1466 48.1249 94.5938C48.4632 95.0289 48.9162 95.2464 49.484 95.2464C50.2813 95.2464 50.8189 94.8597 51.0967 94.0861H54.3947C54.129 95.2706 53.5672 96.2012 52.7095 96.8781C51.8518 97.5549 50.7947 97.8933 49.5383 97.8933C48.5477 97.8933 47.6659 97.6818 46.8927 97.2588C46.1316 96.8358 45.5336 96.2315 45.0987 95.4458C44.6759 94.6602 44.4645 93.7417 44.4645 92.6902ZM60.6549 97.8933C59.6643 97.8933 58.7703 97.6818 57.973 97.2588C57.1877 96.8358 56.5656 96.2315 56.1065 95.4458C55.6596 94.6602 55.4361 93.7417 55.4361 92.6902C55.4361 91.6507 55.6656 90.7382 56.1247 89.9526C56.5837 89.1549 57.2119 88.5446 58.0092 88.1215C58.8065 87.6985 59.7005 87.487 60.6911 87.487C61.6817 87.487 62.5757 87.6985 63.373 88.1215C64.1703 88.5446 64.7985 89.1549 65.2575 89.9526C65.7166 90.7382 65.9461 91.6507 65.9461 92.6902C65.9461 93.7296 65.7106 94.6481 65.2394 95.4458C64.7804 96.2315 64.1461 96.8358 63.3367 97.2588C62.5394 97.6818 61.6455 97.8933 60.6549 97.8933ZM60.6549 95.2102C61.2468 95.2102 61.7481 94.9926 62.1589 94.5575C62.5817 94.1224 62.7931 93.4999 62.7931 92.6902C62.7931 91.8804 62.5877 91.2579 62.177 90.8228C61.7783 90.3877 61.283 90.1702 60.6911 90.1702C60.0871 90.1702 59.5857 90.3877 59.1871 90.8228C58.7884 91.2458 58.5891 91.8683 58.5891 92.6902C58.5891 93.4999 58.7824 94.1224 59.1689 94.5575C59.5676 94.9926 60.0629 95.2102 60.6549 95.2102ZM66.9739 92.672C66.9739 91.6326 67.1672 90.7201 67.5537 89.9345C67.9524 89.1489 68.49 88.5446 69.1665 88.1215C69.843 87.6985 70.598 87.487 71.4316 87.487C72.096 87.487 72.7001 87.626 73.2437 87.904C73.7994 88.182 74.2343 88.5566 74.5484 89.028V84.3325H77.647V97.7483H74.5484V96.2979C74.2584 96.7814 73.8417 97.1681 73.298 97.4582C72.7665 97.7483 72.1444 97.8933 71.4316 97.8933C70.598 97.8933 69.843 97.6818 69.1665 97.2588C68.49 96.8237 67.9524 96.2133 67.5537 95.4277C67.1672 94.63 66.9739 93.7115 66.9739 92.672ZM74.5484 92.6902C74.5484 91.9166 74.3309 91.3063 73.896 90.8591C73.4732 90.4119 72.9537 90.1883 72.3376 90.1883C71.7215 90.1883 71.196 90.4119 70.7611 90.8591C70.3383 91.2942 70.1269 91.8985 70.1269 92.672C70.1269 93.4456 70.3383 94.062 70.7611 94.5212C71.196 94.9684 71.7215 95.192 72.3376 95.192C72.9537 95.192 73.4732 94.9684 73.896 94.5212C74.3309 94.074 74.5484 93.4637 74.5484 92.6902ZM89.4204 92.527C89.4204 92.8171 89.4023 93.1192 89.3661 93.4335H82.3533C82.4016 94.062 82.601 94.5454 82.9513 94.8838C83.3137 95.2102 83.7546 95.3733 84.2741 95.3733C85.0473 95.3733 85.5849 95.047 85.8869 94.3943H89.1848C89.0157 95.0591 88.7077 95.6574 88.2607 96.1891C87.8258 96.7209 87.2761 97.1379 86.6117 97.4401C85.9473 97.7422 85.2043 97.8933 84.3828 97.8933C83.3922 97.8933 82.5104 97.6818 81.7372 97.2588C80.964 96.8358 80.36 96.2315 79.9251 95.4458C79.4902 94.6602 79.2728 93.7417 79.2728 92.6902C79.2728 91.6386 79.4842 90.7201 79.907 89.9345C80.3419 89.1489 80.9459 88.5446 81.7191 88.1215C82.4922 87.6985 83.3802 87.487 84.3828 87.487C85.3614 87.487 86.2312 87.6925 86.9922 88.1034C87.7533 88.5143 88.3452 89.1005 88.7681 89.862C89.203 90.6234 89.4204 91.5117 89.4204 92.527ZM86.2493 91.7112C86.2493 91.1794 86.0681 90.7563 85.7057 90.4421C85.3432 90.1279 84.8902 89.9707 84.3466 89.9707C83.8271 89.9707 83.3862 90.1218 83.0238 90.424C82.6734 90.7261 82.456 91.1552 82.3714 91.7112H86.2493Z" fill="#7510F6"/>
<path d="M39.7148 10.997V11.3604C39.7148 12.5753 39.2272 13.7394 38.3614 14.5915L18.3209 34.3147C16.5339 36.0735 16.5141 38.95 18.2771 40.7332L38.1746 60.859C38.9916 61.6853 39.46 62.7939 39.4833 63.9557L39.4908 64.3402C39.5724 68.4133 34.6592 70.5175 31.7697 67.647L5.17788 41.2311C3.40241 39.4674 3.39224 36.5977 5.15516 34.8213L31.9699 7.80351C34.8191 4.93272 39.7148 6.95139 39.7148 10.997Z" fill="#7510F6"/>
<path d="M26.6764 31.8716L22.3068 36.2433C21.4222 37.1283 21.4222 38.5631 22.3068 39.4481L26.6764 43.8198C27.5609 44.7048 28.9951 44.7048 29.8797 43.8198L34.2493 39.4481C35.1338 38.5631 35.1338 37.1283 34.2493 36.2433L29.8797 31.8716C28.9951 30.9866 27.5609 30.9866 26.6764 31.8716Z" fill="#7510F6"/>
<path d="M50.2852 64.5425V64.1792C50.2852 62.9642 50.7728 61.8001 51.6386 60.9481L71.6791 41.2248C73.4661 39.4661 73.4859 36.5896 71.7229 34.8064L51.8254 14.6805C51.0084 13.8543 50.54 12.7457 50.5169 11.5838L50.5092 11.1994C50.4276 7.12632 55.3408 5.02212 58.2303 7.89256L84.8222 34.3084C86.5977 36.0721 86.6078 38.9419 84.8448 40.7183L58.0301 67.736C55.1809 70.6068 50.2852 68.5881 50.2852 64.5425Z" fill="#7510F6"/>
<path d="M60.12 31.7957L55.7504 36.1673C54.8658 37.0523 54.8658 38.4872 55.7504 39.3722L60.12 43.7439C61.0046 44.6289 62.4387 44.6289 63.3233 43.7439L67.6929 39.3722C68.5775 38.4872 68.5775 37.0523 67.6929 36.1673L63.3233 31.7957C62.4387 30.9107 61.0046 30.9107 60.12 31.7957Z" fill="#7510F6"/>
</svg>
