<svg width="40" height="40" viewBox="0 0 40 40" fill="none" xmlns="http://www.w3.org/2000/svg">
<path d="M18.0505 5.82327V6.01567C18.0505 6.65902 17.8174 7.27545 17.4035 7.72662L7.8213 18.1706C6.96683 19.1018 6.95743 20.625 7.80036 21.5693L17.3141 32.2264C17.7048 32.6639 17.9287 33.251 17.9399 33.8662L17.9435 34.0698C17.9825 36.2266 15.6333 37.3408 14.2517 35.8208L1.53712 21.833C0.688198 20.899 0.683334 19.3794 1.52625 18.4388L14.3474 4.13222C15.7097 2.61207 18.0505 3.68101 18.0505 5.82327Z" fill="white"/>
<path d="M11.8164 16.8766L9.72712 19.1915C9.30417 19.6601 9.30417 20.4199 9.72712 20.8886L11.8164 23.2035C12.2393 23.6721 12.9251 23.6721 13.348 23.2035L15.4373 20.8886C15.8602 20.4199 15.8602 19.6601 15.4373 19.1915L13.348 16.8766C12.9251 16.408 12.2393 16.408 11.8164 16.8766Z" fill="white"/>
<path d="M21.8911 34.1767V33.9843C21.8911 33.3409 22.1242 32.7245 22.5381 32.2733L32.1203 21.8294C32.9748 20.8981 32.9842 19.3749 32.1413 18.4307L22.6274 7.77352C22.2369 7.33602 22.0129 6.749 22.0018 6.13375L21.9981 5.93022C21.9592 3.77341 24.3083 2.65918 25.69 4.17915L38.4045 18.167C39.2534 19.1009 39.2583 20.6205 38.4154 21.5611L25.5942 35.8677C24.2318 37.3879 21.8911 36.3189 21.8911 34.1767Z" fill="white"/>
<path d="M26.5935 16.8366L24.5042 19.1515C24.0813 19.6201 24.0813 20.3799 24.5042 20.8485L26.5935 23.1634C27.0164 23.6321 27.7022 23.6321 28.1251 23.1634L30.2144 20.8485C30.6373 20.3799 30.6373 19.6201 30.2144 19.1515L28.1251 16.8366C27.7022 16.3679 27.0164 16.3679 26.5935 16.8366Z" fill="white"/>
</svg>
